<mxfile host="app.diagrams.net" modified="2021-01-23T14:53:30.161Z" agent="5.0 (Windows NT 10.0; Win64; x64) AppleWebKit/537.36 (KHTML, like Gecko) Chrome/87.0.4280.141 Safari/537.36" etag="tX8HMDSNvoFcoo6zuxG1" version="14.2.7" type="github">
  <diagram id="pjJqDp2mlTyqUnQdDg8H" name="Page-1">
    <mxGraphModel dx="868" dy="425" grid="1" gridSize="10" guides="1" tooltips="1" connect="1" arrows="1" fold="1" page="1" pageScale="1" pageWidth="827" pageHeight="1169" math="0" shadow="0">
      <root>
        <mxCell id="HRm0Tem71c5kKFzc_Awa-0" />
        <mxCell id="HRm0Tem71c5kKFzc_Awa-1" parent="HRm0Tem71c5kKFzc_Awa-0" />
        <mxCell id="5PJw5rZUytSaX4F0p3rT-9" value="" style="rounded=0;whiteSpace=wrap;html=1;" vertex="1" parent="HRm0Tem71c5kKFzc_Awa-1">
          <mxGeometry x="354" y="38.32" width="166" height="202" as="geometry" />
        </mxCell>
        <mxCell id="5PJw5rZUytSaX4F0p3rT-8" style="edgeStyle=none;rounded=0;orthogonalLoop=1;jettySize=auto;html=1;endArrow=none;endFill=0;" edge="1" parent="HRm0Tem71c5kKFzc_Awa-1" source="5PJw5rZUytSaX4F0p3rT-1" target="cTBxlqMjr0OGGQ4enT8b-11">
          <mxGeometry relative="1" as="geometry" />
        </mxCell>
        <mxCell id="5PJw5rZUytSaX4F0p3rT-1" value="" style="rounded=0;whiteSpace=wrap;html=1;" vertex="1" parent="HRm0Tem71c5kKFzc_Awa-1">
          <mxGeometry x="54" y="38" width="120" height="202" as="geometry" />
        </mxCell>
        <mxCell id="5PJw5rZUytSaX4F0p3rT-4" style="edgeStyle=orthogonalEdgeStyle;rounded=0;orthogonalLoop=1;jettySize=auto;html=1;" edge="1" parent="HRm0Tem71c5kKFzc_Awa-1" source="5PJw5rZUytSaX4F0p3rT-5" target="cTBxlqMjr0OGGQ4enT8b-38">
          <mxGeometry relative="1" as="geometry">
            <Array as="points">
              <mxPoint x="109" y="149" />
              <mxPoint x="109" y="149" />
            </Array>
          </mxGeometry>
        </mxCell>
        <mxCell id="5PJw5rZUytSaX4F0p3rT-7" value="" style="edgeStyle=none;rounded=0;orthogonalLoop=1;jettySize=auto;html=1;endArrow=none;endFill=0;" edge="1" parent="HRm0Tem71c5kKFzc_Awa-1" source="cTBxlqMjr0OGGQ4enT8b-1" target="5PJw5rZUytSaX4F0p3rT-5">
          <mxGeometry relative="1" as="geometry" />
        </mxCell>
        <mxCell id="cTBxlqMjr0OGGQ4enT8b-1" value="" style="shape=image;verticalLabelPosition=bottom;labelBackgroundColor=#ffffff;verticalAlign=top;aspect=fixed;imageAspect=0;image=data:image/svg+xml,PHN2ZyB4bWxuczpjYz0iaHR0cDovL2NyZWF0aXZlY29tbW9ucy5vcmcvbnMjIiB4bWxuczpkYz0iaHR0cDovL3B1cmwub3JnL2RjL2VsZW1lbnRzLzEuMS8iIHhtbG5zOmlua3NjYXBlPSJodHRwOi8vd3d3Lmlua3NjYXBlLm9yZy9uYW1lc3BhY2VzL2lua3NjYXBlIiB4bWxuczpyZGY9Imh0dHA6Ly93d3cudzMub3JnLzE5OTkvMDIvMjItcmRmLXN5bnRheC1ucyMiIHhtbG5zOnNvZGlwb2RpPSJodHRwOi8vc29kaXBvZGkuc291cmNlZm9yZ2UubmV0L0RURC9zb2RpcG9kaS0wLmR0ZCIgeG1sbnM6c3ZnPSJodHRwOi8vd3d3LnczLm9yZy8yMDAwL3N2ZyIgeG1sbnM9Imh0dHA6Ly93d3cudzMub3JnLzIwMDAvc3ZnIiB4bWxuczp4bGluaz0iaHR0cDovL3d3dy53My5vcmcvMTk5OS94bGluayIgdmVyc2lvbj0iMS4xIiBpZD0ic3ZnMzg5ODYiIGlua3NjYXBlOnZlcnNpb249IjAuOTIuMyAoMjQwNTU0NiwgMjAxOC0wMy0xMSkiIHNvZGlwb2RpOmRvY25hbWU9ImNzdl8xLnN2ZyIgeD0iMHB4IiB5PSIwcHgiIHZpZXdCb3g9IjAgMCAzMS44OCAzNi40NCIgc3R5bGU9ImVuYWJsZS1iYWNrZ3JvdW5kOm5ldyAwIDAgMzEuODggMzYuNDQ7IiB4bWw6c3BhY2U9InByZXNlcnZlIj4mI3hhOzxzb2RpcG9kaTpuYW1lZHZpZXcgYm9yZGVyY29sb3I9IiM2NjY2NjYiIGJvcmRlcm9wYWNpdHk9IjEiIGZpdC1tYXJnaW4tYm90dG9tPSIwIiBmaXQtbWFyZ2luLWxlZnQ9IjAiIGZpdC1tYXJnaW4tcmlnaHQ9IjAiIGZpdC1tYXJnaW4tdG9wPSIwIiBncmlkdG9sZXJhbmNlPSIxMCIgZ3VpZGV0b2xlcmFuY2U9IjEwIiBpZD0ibmFtZWR2aWV3Mzg5ODgiIGlua3NjYXBlOmN1cnJlbnQtbGF5ZXI9InN2ZzM4OTg2IiBpbmtzY2FwZTpjeD0iMTguNjk5MDk5IiBpbmtzY2FwZTpjeT0iMjMuOTk3OTYxIiBpbmtzY2FwZTpwYWdlb3BhY2l0eT0iMCIgaW5rc2NhcGU6cGFnZXNoYWRvdz0iMiIgaW5rc2NhcGU6d2luZG93LWhlaWdodD0iMTAxNyIgaW5rc2NhcGU6d2luZG93LW1heGltaXplZD0iMSIgaW5rc2NhcGU6d2luZG93LXdpZHRoPSIxOTIwIiBpbmtzY2FwZTp3aW5kb3cteD0iLTgiIGlua3NjYXBlOndpbmRvdy15PSItOCIgaW5rc2NhcGU6em9vbT0iMTYuNTYxNzExIiBvYmplY3R0b2xlcmFuY2U9IjEwIiBwYWdlY29sb3I9IiNmZmZmZmYiIHNob3dncmlkPSJmYWxzZSI+JiN4YTsJPC9zb2RpcG9kaTpuYW1lZHZpZXc+JiN4YTs8ZyBpZD0iZzM4OTg0IiB0cmFuc2Zvcm09InRyYW5zbGF0ZSgtNS4wMjg1NywtMS4xOTIyMTMpIj4mI3hhOwk8dGl0bGUgaWQ9InRpdGxlMzg5MzMiPlBhZ2UtMTwvdGl0bGU+JiN4YTsJPGcgaWQ9Imdyb3VwNDAyNi0xIiB0cmFuc2Zvcm09InRyYW5zbGF0ZSg1LjAyODU3LC0xLjYzMDQyKSI+JiN4YTsJCTx0aXRsZSBpZD0idGl0bGUzODkzNSI+Q1NWICMxPC90aXRsZT4mI3hhOwkJPGcgaWQ9Imdyb3VwNDAyNy0yIj4mI3hhOwkJCTx0aXRsZSBpZD0idGl0bGUzODkzNyI+RE9DICMxLjM2NzU4PC90aXRsZT4mI3hhOwkJCTxnIGlkPSJzaGFwZTQwMjgtMyIgdHJhbnNmb3JtPSJ0cmFuc2xhdGUoNC41NTQ1NikiPiYjeGE7CQkJCTx0aXRsZSBpZD0idGl0bGUzODkzOSI+U2hlZXQuNDAyODwvdGl0bGU+JiN4YTsJCQkJPHBhdGggaWQ9InBhdGgzODk0MSIgaW5rc2NhcGU6Y29ubmVjdG9yLWN1cnZhdHVyZT0iMCIgc3R5bGU9ImZpbGw6I0UyRTVFNzsiIGQ9Ik0yLjI4LDIuODNDMS4wMiwyLjgzLDAsMy44NSwwLDUuMXYzMS44OCAgICAgIGMwLDEuMjYsMS4wMiwyLjI4LDIuMjgsMi4yOGgyMi43N2MxLjI1LDAsMi4yOC0xLjAyLDIuMjgtMi4yOFYxMS45M2wtOS4xMS05LjFIMi4yOHoiLz4mI3hhOwkJCTwvZz4mI3hhOwkJCTxnIGlkPSJzaGFwZTQwMjktNSIgdHJhbnNmb3JtPSJ0cmFuc2xhdGUoMjIuNzcyOCwtMjcuMzI3NCkiPiYjeGE7CQkJCTx0aXRsZSBpZD0idGl0bGUzODk0NCI+U2hlZXQuNDAyOTwvdGl0bGU+JiN4YTsJCQkJPHBhdGggaWQ9InBhdGgzODk0NiIgaW5rc2NhcGU6Y29ubmVjdG9yLWN1cnZhdHVyZT0iMCIgc3R5bGU9ImZpbGw6I0IwQjdCRDsiIGQ9Ik0yLjI4LDM5LjI2aDYuODNMMCwzMC4xNXY2LjgzICAgICAgQzAsMzguMjQsMS4wMiwzOS4yNiwyLjI4LDM5LjI2eiIvPiYjeGE7CQkJPC9nPiYjeGE7CQkJPGcgaWQ9InNoYXBlNDAzMC03IiB0cmFuc2Zvcm09InRyYW5zbGF0ZSgyNS4wNTAxLC0yMC40OTU1KSI+JiN4YTsJCQkJPHRpdGxlIGlkPSJ0aXRsZTM4OTQ5Ij5TaGVldC40MDMwPC90aXRsZT4mI3hhOwkJCQk8cGF0aCBpZD0icGF0aDM4OTUxIiBpbmtzY2FwZTpjb25uZWN0b3ItY3VydmF0dXJlPSIwIiBzdHlsZT0iZmlsbDojQ0FEMUQ4OyIgZD0iTTYuODMsMzkuMjZMMCwzMi40M2g2LjgzVjM5LjI2eiIvPiYjeGE7CQkJPC9nPiYjeGE7CQkJPGcgaWQ9InNoYXBlNDAzMS05IiB0cmFuc2Zvcm09InRyYW5zbGF0ZSgwLC01LjY5MzIpIj4mI3hhOwkJCQk8dGl0bGUgaWQ9InRpdGxlMzg5NTQiPlNoZWV0LjQwMzE8L3RpdGxlPiYjeGE7CQkJCTxwYXRoIGlkPSJwYXRoMzg5NTYiIGlua3NjYXBlOmNvbm5lY3Rvci1jdXJ2YXR1cmU9IjAiIHN0eWxlPSJmaWxsOiNGMzBCQTA7IiBkPSJNMjcuMzMsMzguMTJjMCwwLjYzLTAuNTIsMS4xNC0xLjE0LDEuMTRIMS4xNCAgICAgIEMwLjUxLDM5LjI2LDAsMzguNzUsMCwzOC4xMlYyNi43NGMwLTAuNjMsMC41MS0xLjE0LDEuMTQtMS4xNGgyNS4wNWMwLjYyLDAsMS4xNCwwLjUxLDEuMTQsMS4xNEwyNy4zMywzOC4xMnoiLz4mI3hhOwkJCTwvZz4mI3hhOwkJCTxnIGlkPSJzaGFwZTQwMzItMTEiIHRyYW5zZm9ybT0idHJhbnNsYXRlKDQuNTU0NTYsLTQuNTU0NTYpIj4mI3hhOwkJCQk8dGl0bGUgaWQ9InRpdGxlMzg5NTkiPlNoZWV0LjQwMzI8L3RpdGxlPiYjeGE7CQkJCTxwYXRoIGlkPSJwYXRoMzg5NjEiIGlua3NjYXBlOmNvbm5lY3Rvci1jdXJ2YXR1cmU9IjAiIHN0eWxlPSJmaWxsOiNDQUQxRDg7IiBkPSJNMjEuNjMsMzguMTJIMHYxLjE0aDIxLjYzICAgICAgYzAuNjMsMCwxLjE0LTAuNTEsMS4xNC0xLjE0di0xLjE0QzIyLjc3LDM3LjYxLDIyLjI2LDM4LjEyLDIxLjYzLDM4LjEyeiIvPiYjeGE7CQkJPC9nPiYjeGE7CQk8L2c+JiN4YTsJCTxnIGlkPSJncm91cDQwMzMtMTMiIHRyYW5zZm9ybT0idHJhbnNsYXRlKDUuOSwtOS4yOTgxNikiPiYjeGE7CQkJPHRpdGxlIGlkPSJ0aXRsZTM4OTY1Ij5DU1YuMzY3NzA8L3RpdGxlPiYjeGE7CQkJPGcgaWQ9InNoYXBlNDAzNC0xNCI+JiN4YTsJCQkJPHRpdGxlIGlkPSJ0aXRsZTM4OTY3Ij5TaGVldC40MDM0PC90aXRsZT4mI3hhOwkJCQk8cGF0aCBpZD0icGF0aDM4OTY5IiBpbmtzY2FwZTpjb25uZWN0b3ItY3VydmF0dXJlPSIwIiBzdHlsZT0iZmlsbDojRkZGRkZGOyIgZD0iTTQuMzcsMzguNTdjLTAuMjMsMC4yMy0wLjUsMC40MS0wLjc5LDAuNTIgICAgICBjLTAuMywwLjEyLTAuNjIsMC4xNy0wLjk2LDAuMTdjLTAuMzgsMC0wLjcyLTAuMDctMS4wNC0wLjJjLTAuMzEtMC4xNC0wLjU5LTAuMzUtMC44Mi0wLjYyYy0wLjI0LTAuMjctMC40My0wLjYxLTAuNTYtMS4wMSAgICAgIEMwLjA3LDM3LjAyLDAsMzYuNTUsMCwzNi4wMWMwLTAuNTMsMC4wNy0xLDAuMi0xLjQxYzAuMTMtMC40LDAuMzItMC43NCwwLjU2LTEuMDFjMC4yMy0wLjI3LDAuNTEtMC40OCwwLjgzLTAuNjIgICAgICBzMC42Ni0wLjIxLDEuMDMtMC4yMWMwLjM0LDAsMC42NiwwLjA2LDAuOTYsMC4xN2MwLjI5LDAuMTIsMC41NiwwLjI5LDAuNzksMC41MmwtMC43MSwwLjY0Yy0wLjE0LTAuMTctMC4zLTAuMjktMC40Ny0wLjM2ICAgICAgYy0wLjE4LTAuMDgtMC4zNi0wLjEyLTAuNTQtMC4xMmMtMC4yMiwwLTAuNDIsMC4wNC0wLjYxLDAuMTJjLTAuMTksMC4wOS0wLjM2LDAuMjItMC41MSwwLjQxYy0wLjE1LDAuMi0wLjI3LDAuNDQtMC4zNSwwLjc1ICAgICAgYy0wLjA5LDAuMzEtMC4xMywwLjY4LTAuMTQsMS4xMmMwLjAxLDAuNDMsMC4wNSwwLjgsMC4xMywxLjFjMC4wOSwwLjMxLDAuMiwwLjU2LDAuMzQsMC43NWMwLjE1LDAuMTksMC4zMSwwLjMzLDAuNSwwLjQyICAgICAgYzAuMTgsMC4wOSwwLjM4LDAuMTQsMC41OCwwLjE0YzAuMjEsMCwwLjQtMC4wNCwwLjU4LTAuMTJjMC4xOC0wLjA3LDAuMzQtMC4xOSwwLjQ5LTAuMzZMNC4zNywzOC41N3oiLz4mI3hhOwkJCTwvZz4mI3hhOwkJCTxnIGlkPSJzaGFwZTQwMzUtMTYiIHRyYW5zZm9ybT0idHJhbnNsYXRlKDUuNzQzMzYsLTAuMDA4ODMwMjcpIj4mI3hhOwkJCQk8dGl0bGUgaWQ9InRpdGxlMzg5NzIiPlNoZWV0LjQwMzU8L3RpdGxlPiYjeGE7CQkJCTxwYXRoIGlkPSJwYXRoMzg5NzQiIGlua3NjYXBlOmNvbm5lY3Rvci1jdXJ2YXR1cmU9IjAiIHN0eWxlPSJmaWxsOiNGRkZGRkY7IiBkPSJNMy42NSwzNy40OWMwLDAuMjMtMC4wNCwwLjQ1LTAuMTQsMC42NiAgICAgIGMtMC4wOSwwLjIyLTAuMjIsMC40MS0wLjM5LDAuNTdjLTAuMTcsMC4xNy0wLjM5LDAuMy0wLjY0LDAuNGMtMC4yNSwwLjA5LTAuNTMsMC4xNC0wLjg1LDAuMTRjLTAuMTQsMC0wLjI4LTAuMDEtMC40Mi0wLjAyICAgICAgYy0wLjE1LTAuMDEtMC4yOS0wLjA0LTAuNDQtMC4wN2MtMC4xNS0wLjA0LTAuMjktMC4wOC0wLjQyLTAuMTRDMC4yMSwzOC45NiwwLjEsMzguODksMCwzOC44bDAuMTgtMC43NCAgICAgIGMwLjA4LDAuMDUsMC4xOCwwLjA5LDAuMywwLjE0YzAuMTIsMC4wNCwwLjI1LDAuMDgsMC4zOCwwLjEyYzAuMTMsMC4wNCwwLjI2LDAuMDYsMC4zOSwwLjA5YzAuMTMsMC4wMiwwLjI2LDAuMDMsMC4zNywwLjAzICAgICAgYzAuMzUsMCwwLjYxLTAuMDgsMC44LTAuMjRjMC4xOC0wLjE3LDAuMjgtMC40MSwwLjI4LTAuNzNjMC0wLjItMC4wNy0wLjM2LTAuMi0wLjVzLTAuMjktMC4yNi0wLjQ5LTAuMzggICAgICBjLTAuMi0wLjExLTAuNDEtMC4yMi0wLjY0LTAuMzNjLTAuMjItMC4xMi0wLjQ0LTAuMjUtMC42NC0wLjRjLTAuMi0wLjE1LTAuMzYtMC4zMy0wLjQ5LTAuNTRzLTAuMi0wLjQ2LTAuMi0wLjc3ICAgICAgYzAtMC4yOSwwLjA1LTAuNTQsMC4xNi0wLjc1YzAuMS0wLjIyLDAuMjQtMC40MSwwLjQxLTAuNTZzMC4zOC0wLjI3LDAuNjEtMC4zNWMwLjIzLTAuMDgsMC40Ny0wLjEyLDAuNzMtMC4xMiAgICAgIHMwLjUyLDAuMDIsMC43OSwwLjA3czAuNDgsMC4xMywwLjY1LDAuMjRjLTAuMDQsMC4wNy0wLjA4LDAuMTYtMC4xMiwwLjI1Yy0wLjA1LDAuMDktMC4wOSwwLjE3LTAuMTMsMC4yNSAgICAgIGMtMC4wNCwwLjA3LTAuMDcsMC4xNC0wLjEsMC4xOXMtMC4wNSwwLjA4LTAuMDUsMC4wOWMtMC4wNC0wLjAyLTAuMDctMC4wNC0wLjEyLTAuMDdjLTAuMDQtMC4wMy0wLjEtMC4wNi0wLjE4LTAuMDkgICAgICBjLTAuMDgtMC4wMy0wLjE5LTAuMDUtMC4zMi0wLjA2Yy0wLjEzLTAuMDEtMC4zLTAuMDEtMC41LDAuMDFjLTAuMTIsMC4wMS0wLjIyLDAuMDQtMC4zMywwLjFjLTAuMSwwLjA1LTAuMTksMC4xMi0wLjI3LDAuMiAgICAgIHMtMC4xNCwwLjE3LTAuMTksMC4yN2MtMC4wNCwwLjEtMC4wNywwLjItMC4wNywwLjI5YzAsMC4yMywwLjA3LDAuNDIsMC4yLDAuNTZjMC4xMywwLjE0LDAuMjksMC4yNiwwLjQ5LDAuMzcgICAgICBjMC4xOSwwLjExLDAuNCwwLjIxLDAuNjMsMC4zMWMwLjIzLDAuMSwwLjQ0LDAuMjIsMC42NCwwLjM3YzAuMTksMC4xNCwwLjM1LDAuMzIsMC40OSwwLjUzQzMuNTksMzYuODcsMy42NSwzNy4xNSwzLjY1LDM3LjQ5eiIvPiYjeGE7CQkJPC9nPiYjeGE7CQkJPGcgaWQ9InNoYXBlNDAzNi0xOCIgdHJhbnNmb3JtPSJ0cmFuc2xhdGUoMTAuMTkxMiwtMC4wMDgxOTk1MykiPiYjeGE7CQkJCTx0aXRsZSBpZD0idGl0bGUzODk3NyI+U2hlZXQuNDAzNjwvdGl0bGU+JiN4YTsJCQkJPHBhdGggaWQ9InBhdGgzODk3OSIgaW5rc2NhcGU6Y29ubmVjdG9yLWN1cnZhdHVyZT0iMCIgc3R5bGU9ImZpbGw6I0ZGRkZGRjsiIGQ9Ik0xLjk1LDM5LjI2TDAsMzIuODdoMS4xN2wxLjQ2LDUuNDlsMS41NC01LjQ5ICAgICAgaDEuMTdsLTIuMDUsNi4zOUwxLjk1LDM5LjI2eiIvPiYjeGE7CQkJPC9nPiYjeGE7CQk8L2c+JiN4YTsJPC9nPiYjeGE7PC9nPiYjeGE7PC9zdmc+;" parent="HRm0Tem71c5kKFzc_Awa-1" vertex="1">
          <mxGeometry x="97" y="60" width="32" height="36" as="geometry" />
        </mxCell>
        <mxCell id="cTBxlqMjr0OGGQ4enT8b-10" value="" style="shape=image;verticalLabelPosition=bottom;labelBackgroundColor=#ffffff;verticalAlign=top;aspect=fixed;imageAspect=0;image=data:image/svg+xml,PHN2ZyB4bWxuczpjYz0iaHR0cDovL2NyZWF0aXZlY29tbW9ucy5vcmcvbnMjIiB4bWxuczpkYz0iaHR0cDovL3B1cmwub3JnL2RjL2VsZW1lbnRzLzEuMS8iIHhtbG5zOmlua3NjYXBlPSJodHRwOi8vd3d3Lmlua3NjYXBlLm9yZy9uYW1lc3BhY2VzL2lua3NjYXBlIiB4bWxuczpyZGY9Imh0dHA6Ly93d3cudzMub3JnLzE5OTkvMDIvMjItcmRmLXN5bnRheC1ucyMiIHhtbG5zOnNvZGlwb2RpPSJodHRwOi8vc29kaXBvZGkuc291cmNlZm9yZ2UubmV0L0RURC9zb2RpcG9kaS0wLmR0ZCIgeG1sbnM6c3ZnPSJodHRwOi8vd3d3LnczLm9yZy8yMDAwL3N2ZyIgeG1sbnM9Imh0dHA6Ly93d3cudzMub3JnLzIwMDAvc3ZnIiB4bWxuczp4bGluaz0iaHR0cDovL3d3dy53My5vcmcvMTk5OS94bGluayIgdmVyc2lvbj0iMS4xIiBpZD0ic3ZnNzc5MjQiIGlua3NjYXBlOnZlcnNpb249IjAuOTIuMyAoMjQwNTU0NiwgMjAxOC0wMy0xMSkiIHNvZGlwb2RpOmRvY25hbWU9ImRhdGFfcGlwZWxpbmVzLnN2ZyIgeD0iMHB4IiB5PSIwcHgiIHZpZXdCb3g9IjAgMCA2Mi4zNyA0MC40MiIgc3R5bGU9ImVuYWJsZS1iYWNrZ3JvdW5kOm5ldyAwIDAgNjIuMzcgNDAuNDI7IiB4bWw6c3BhY2U9InByZXNlcnZlIj4mI3hhOzxzb2RpcG9kaTpuYW1lZHZpZXcgYm9yZGVyY29sb3I9IiM2NjY2NjYiIGJvcmRlcm9wYWNpdHk9IjEiIGZpdC1tYXJnaW4tYm90dG9tPSIwIiBmaXQtbWFyZ2luLWxlZnQ9IjAiIGZpdC1tYXJnaW4tcmlnaHQ9IjAiIGZpdC1tYXJnaW4tdG9wPSIwIiBncmlkdG9sZXJhbmNlPSIxMCIgZ3VpZGV0b2xlcmFuY2U9IjEwIiBpZD0ibmFtZWR2aWV3Nzc5MjYiIGlua3NjYXBlOmN1cnJlbnQtbGF5ZXI9InN2Zzc3OTI0IiBpbmtzY2FwZTpjeD0iNDUuMjI3NTg0IiBpbmtzY2FwZTpjeT0iMjAuMzQ0ODU2IiBpbmtzY2FwZTpwYWdlb3BhY2l0eT0iMCIgaW5rc2NhcGU6cGFnZXNoYWRvdz0iMiIgaW5rc2NhcGU6d2luZG93LWhlaWdodD0iMTAxNyIgaW5rc2NhcGU6d2luZG93LW1heGltaXplZD0iMSIgaW5rc2NhcGU6d2luZG93LXdpZHRoPSIxOTIwIiBpbmtzY2FwZTp3aW5kb3cteD0iLTgiIGlua3NjYXBlOndpbmRvdy15PSItOCIgaW5rc2NhcGU6em9vbT0iMTEuMzc2MzExIiBvYmplY3R0b2xlcmFuY2U9IjEwIiBwYWdlY29sb3I9IiNmZmZmZmYiIHNob3dncmlkPSJmYWxzZSI+JiN4YTsJPC9zb2RpcG9kaTpuYW1lZHZpZXc+JiN4YTs8ZyBpZD0iZzc3OTIyIj4mI3hhOwk8dGl0bGUgaWQ9InRpdGxlNzc5MDIiPlBhZ2UtMTwvdGl0bGU+JiN4YTsJPGcgaWQ9Imdyb3VwNTAwMS0xIj4mI3hhOwkJPHRpdGxlIGlkPSJ0aXRsZTc3OTA0Ij5EYXRhIFBpcGVsaW5lcy40OTQ8L3RpdGxlPiYjeGE7CQk8ZyBpZD0ic2hhcGU1MDAyLTIiIHRyYW5zZm9ybT0idHJhbnNsYXRlKDkuMjAwOTgsLTQuNTg4MDYpIj4mI3hhOwkJCTx0aXRsZSBpZD0idGl0bGU3NzkwNiI+U2hlZXQuNTAwMjwvdGl0bGU+JiN4YTsJCQk8cGF0aCBpZD0icGF0aDc3OTA4IiBpbmtzY2FwZTpjb25uZWN0b3ItY3VydmF0dXJlPSIwIiBzdHlsZT0iZmlsbDojMDA3MDhFOyIgZD0iTTAsOS4yMXYzMS4yMWg0Ny41NFY5LjIxSDB6Ii8+JiN4YTsJCTwvZz4mI3hhOwkJPGcgaWQ9InNoYXBlNTAwMy00Ij4mI3hhOwkJCTx0aXRsZSBpZD0idGl0bGU3NzkxMSI+U2hlZXQuNTAwMzwvdGl0bGU+JiN4YTsJCQk8cGF0aCBpZD0icGF0aDc3OTEzIiBpbmtzY2FwZTpjb25uZWN0b3ItY3VydmF0dXJlPSIwIiBzdHlsZT0iZmlsbDojMDA5MEI3OyIgZD0iTTAsNS44NUMwLDM0LjYsMCwzNC42LDAsMzQuNiAgICAgYzAsMy41MSwyLjM2LDUuODIsNS44OCw1LjgyYzMuMTYsMCw1Ljg4LTIuMzEsNS44OC01LjgyYzAtMjguNzUsMC0yOC43NSwwLTI4Ljc1QzExLjc2LDIuNzUsOS4wNCwwLDUuODgsMEMyLjM2LDAsMCwyLjc1LDAsNS44NSAgICAgeiIvPiYjeGE7CQk8L2c+JiN4YTsJCTxnIGlkPSJzaGFwZTUwMDQtNiIgdHJhbnNmb3JtPSJ0cmFuc2xhdGUoNTEuMTE2NikiPiYjeGE7CQkJPHRpdGxlIGlkPSJ0aXRsZTc3OTE2Ij5TaGVldC41MDA0PC90aXRsZT4mI3hhOwkJCTxwYXRoIGlkPSJwYXRoNzc5MTgiIGlua3NjYXBlOmNvbm5lY3Rvci1jdXJ2YXR1cmU9IjAiIHN0eWxlPSJmaWxsOiMwMDkwQjc7IiBkPSJNMCw1Ljg1QzAsMzQuNiwwLDM0LjYsMCwzNC42ICAgICBjMCwzLjUxLDIuNjUsNS44Miw1LjYyLDUuODJjMy4wMSwwLDUuNjMtMi4zMSw1LjYzLTUuODJjMC0yOC43NSwwLTI4Ljc1LDAtMjguNzVDMTEuMjUsMi43NSw4LjYzLDAsNS42MiwwQzIuNjUsMCwwLDIuNzUsMCw1Ljg1ICAgICB6Ii8+JiN4YTsJCTwvZz4mI3hhOwk8L2c+JiN4YTs8L2c+JiN4YTs8L3N2Zz4=;" parent="HRm0Tem71c5kKFzc_Awa-1" vertex="1">
          <mxGeometry x="270" y="240.32" width="30" height="19.36" as="geometry" />
        </mxCell>
        <mxCell id="cTBxlqMjr0OGGQ4enT8b-13" value="" style="verticalLabelPosition=bottom;html=1;verticalAlign=top;align=center;strokeColor=none;fillColor=#00BEF2;shape=mxgraph.azure.script_file;pointerEvents=1;" parent="HRm0Tem71c5kKFzc_Awa-1" vertex="1">
          <mxGeometry x="521.5" width="47.5" height="50" as="geometry" />
        </mxCell>
        <mxCell id="cTBxlqMjr0OGGQ4enT8b-14" value="" style="aspect=fixed;html=1;points=[];align=center;image;fontSize=12;image=img/lib/mscae/Policy.svg;" parent="HRm0Tem71c5kKFzc_Awa-1" vertex="1">
          <mxGeometry x="560" y="218" width="27" height="30" as="geometry" />
        </mxCell>
        <mxCell id="cTBxlqMjr0OGGQ4enT8b-20" value="" style="group" parent="HRm0Tem71c5kKFzc_Awa-1" vertex="1" connectable="0">
          <mxGeometry x="250" y="115.00000000000182" width="45" height="48" as="geometry" />
        </mxCell>
        <mxCell id="cTBxlqMjr0OGGQ4enT8b-11" value="" style="shape=image;verticalLabelPosition=bottom;labelBackgroundColor=#ffffff;verticalAlign=top;aspect=fixed;imageAspect=0;image=data:image/svg+xml,PHN2ZyB4bWxuczpjYz0iaHR0cDovL2NyZWF0aXZlY29tbW9ucy5vcmcvbnMjIiB4bWxuczpkYz0iaHR0cDovL3B1cmwub3JnL2RjL2VsZW1lbnRzLzEuMS8iIHhtbG5zOmlua3NjYXBlPSJodHRwOi8vd3d3Lmlua3NjYXBlLm9yZy9uYW1lc3BhY2VzL2lua3NjYXBlIiB4bWxuczpyZGY9Imh0dHA6Ly93d3cudzMub3JnLzE5OTkvMDIvMjItcmRmLXN5bnRheC1ucyMiIHhtbG5zOnNvZGlwb2RpPSJodHRwOi8vc29kaXBvZGkuc291cmNlZm9yZ2UubmV0L0RURC9zb2RpcG9kaS0wLmR0ZCIgeG1sbnM6c3ZnPSJodHRwOi8vd3d3LnczLm9yZy8yMDAwL3N2ZyIgeG1sbnM9Imh0dHA6Ly93d3cudzMub3JnLzIwMDAvc3ZnIiB4bWxuczp4bGluaz0iaHR0cDovL3d3dy53My5vcmcvMTk5OS94bGluayIgdmVyc2lvbj0iMS4xIiBpZD0ic3ZnODM1OTMiIGlua3NjYXBlOnZlcnNpb249IjAuOTIuMyAoMjQwNTU0NiwgMjAxOC0wMy0xMSkiIHNvZGlwb2RpOmRvY25hbWU9Im1hY2hpbmVfbGVhcm5pbmdfMS5zdmciIHg9IjBweCIgeT0iMHB4IiB2aWV3Qm94PSIwIDAgNDUgNDgiIHN0eWxlPSJlbmFibGUtYmFja2dyb3VuZDpuZXcgMCAwIDQ1IDQ4OyIgeG1sOnNwYWNlPSJwcmVzZXJ2ZSI+JiN4YTs8c29kaXBvZGk6bmFtZWR2aWV3IGJvcmRlcmNvbG9yPSIjNjY2NjY2IiBib3JkZXJvcGFjaXR5PSIxIiBmaXQtbWFyZ2luLWJvdHRvbT0iMCIgZml0LW1hcmdpbi1sZWZ0PSIwIiBmaXQtbWFyZ2luLXJpZ2h0PSIwIiBmaXQtbWFyZ2luLXRvcD0iMCIgZ3JpZHRvbGVyYW5jZT0iMTAiIGd1aWRldG9sZXJhbmNlPSIxMCIgaWQ9Im5hbWVkdmlldzgzNTk1IiBpbmtzY2FwZTpjdXJyZW50LWxheWVyPSJzdmc4MzU5MyIgaW5rc2NhcGU6Y3g9IjMzLjMxNzk4NyIgaW5rc2NhcGU6Y3k9IjIzLjQzOTA5MyIgaW5rc2NhcGU6cGFnZW9wYWNpdHk9IjAiIGlua3NjYXBlOnBhZ2VzaGFkb3c9IjIiIGlua3NjYXBlOndpbmRvdy1oZWlnaHQ9IjEwMTciIGlua3NjYXBlOndpbmRvdy1tYXhpbWl6ZWQ9IjEiIGlua3NjYXBlOndpbmRvdy13aWR0aD0iMTkyMCIgaW5rc2NhcGU6d2luZG93LXg9Ii04IiBpbmtzY2FwZTp3aW5kb3cteT0iLTgiIGlua3NjYXBlOnpvb209IjkuMjg4ODExOCIgb2JqZWN0dG9sZXJhbmNlPSIxMCIgcGFnZWNvbG9yPSIjZmZmZmZmIiBzaG93Z3JpZD0iZmFsc2UiPiYjeGE7CTwvc29kaXBvZGk6bmFtZWR2aWV3PiYjeGE7PGcgaWQ9Imc4MzU5MSIgdHJhbnNmb3JtPSJ0cmFuc2xhdGUoLTAuNzUsLTAuNzUwMDAwNjEpIj4mI3hhOwk8dGl0bGUgaWQ9InRpdGxlODM1NjYiPlBhZ2UtMTwvdGl0bGU+JiN4YTsJPGcgaWQ9Imdyb3VwNTA3NS0xIiB0cmFuc2Zvcm09InRyYW5zbGF0ZSgwLjc1LC0wLjc1KSI+JiN4YTsJCTx0aXRsZSBpZD0idGl0bGU4MzU2OCI+TWFjaGluZSBMZWFybmluZyAjMS41MDY8L3RpdGxlPiYjeGE7CQk8ZyBpZD0ic2hhcGU1MDc2LTIiIHRyYW5zZm9ybT0idHJhbnNsYXRlKDE2LjQ3LC0yOS45ODUpIj4mI3hhOwkJCTx0aXRsZSBpZD0idGl0bGU4MzU3MCI+cmVjdDE1MDE1PC90aXRsZT4mI3hhOwkJCSYjeGE7CQkJCTxyYWRpYWxHcmFkaWVudCBpZD0icmVjdDgzNTcyXzFfIiBjeD0iNTUuMDUzOCIgY3k9IjExNy4wNjI3IiByPSI3LjM0MjMiIGdyYWRpZW50VHJhbnNmb3JtPSJtYXRyaXgoMC44MTUxIDAgMCAtMS4yMjY4IC0zOC44OTEzIDE4NC4xMDM5KSIgZ3JhZGllbnRVbml0cz0idXNlclNwYWNlT25Vc2UiPiYjeGE7CQkJCTxzdG9wIG9mZnNldD0iMCIgc3R5bGU9InN0b3AtY29sb3I6IzBFOTBDRiIvPiYjeGE7CQkJCTxzdG9wIG9mZnNldD0iMSIgc3R5bGU9InN0b3AtY29sb3I6IzAwNkRBQSIvPiYjeGE7CQkJPC9yYWRpYWxHcmFkaWVudD4mI3hhOwkJCTxyZWN0IGlkPSJyZWN0ODM1NzIiIHg9IjAiIHk9IjMxLjQ5IiBzdHlsZT0iZmlsbDp1cmwoI3JlY3Q4MzU3Ml8xXyk7IiB3aWR0aD0iMTEuOTciIGhlaWdodD0iMTguMDEiLz4mI3hhOwkJPC9nPiYjeGE7CQk8ZyBpZD0ic2hhcGU1MDc3LTYiPiYjeGE7CQkJPHRpdGxlIGlkPSJ0aXRsZTgzNTc1Ij5wb2x5Z29uMTUwMTc8L3RpdGxlPiYjeGE7CQkJJiN4YTsJCQkJPHJhZGlhbEdyYWRpZW50IGlkPSJwYXRoODM1NzdfMV8iIGN4PSItMTI1LjM3MiIgY3k9Ii0zODAuODY0OSIgcj0iMTEuNjA5MyIgZ3JhZGllbnRUcmFuc2Zvcm09Im1hdHJpeCgxLjkzODEgMCAwIC0wLjUxNiAyNjUuNDg0NCAtMTUzLjAwMzgpIiBncmFkaWVudFVuaXRzPSJ1c2VyU3BhY2VPblVzZSI+JiN4YTsJCQkJPHN0b3Agb2Zmc2V0PSIwIiBzdHlsZT0ic3RvcC1jb2xvcjojMUE0NDdBIi8+JiN4YTsJCQkJPHN0b3Agb2Zmc2V0PSIwLjI3IiBzdHlsZT0ic3RvcC1jb2xvcjojMTYzRTY4Ii8+JiN4YTsJCQkJPHN0b3Agb2Zmc2V0PSIwLjcyIiBzdHlsZT0ic3RvcC1jb2xvcjojMTAzNjUxIi8+JiN4YTsJCQkJPHN0b3Agb2Zmc2V0PSIxIiBzdHlsZT0ic3RvcC1jb2xvcjojMEUzMzQ4Ii8+JiN4YTsJCQk8L3JhZGlhbEdyYWRpZW50PiYjeGE7CQkJPHBhdGggaWQ9InBhdGg4MzU3NyIgaW5rc2NhcGU6Y29ubmVjdG9yLWN1cnZhdHVyZT0iMCIgc3R5bGU9ImZpbGw6dXJsKCNwYXRoODM1NzdfMV8pOyIgZD0iTTAsMzcuNTJoNDVMNDIuMDMsNDkuNUgyLjk3TDAsMzcuNTIgICAgIHoiLz4mI3hhOwkJPC9nPiYjeGE7CQk8ZyBpZD0ic2hhcGU1MDc4LTEwIj4mI3hhOwkJCTx0aXRsZSBpZD0idGl0bGU4MzU4MCI+cG9seWdvbjE1MDE5PC90aXRsZT4mI3hhOwkJCSYjeGE7CQkJCTxyYWRpYWxHcmFkaWVudCBpZD0icGF0aDgzNTgyXzFfIiBjeD0iMjEuNzc2MyIgY3k9IjI2Ljk4ODgiIHI9IjE0LjYyNTQiIGdyYWRpZW50VHJhbnNmb3JtPSJtYXRyaXgoMC45NzU0IDAgMCAtMS4wMjUzIC02Ljk3NDYgNjIuMTc1NykiIGdyYWRpZW50VW5pdHM9InVzZXJTcGFjZU9uVXNlIj4mI3hhOwkJCQk8c3RvcCBvZmZzZXQ9IjAiIHN0eWxlPSJzdG9wLWNvbG9yOiM0OUJERUEiLz4mI3hhOwkJCQk8c3RvcCBvZmZzZXQ9IjAuMzYiIHN0eWxlPSJzdG9wLWNvbG9yOiMyRUE0REUiLz4mI3hhOwkJCQk8c3RvcCBvZmZzZXQ9IjAuNzUiIHN0eWxlPSJzdG9wLWNvbG9yOiMxNzhFRDMiLz4mI3hhOwkJCQk8c3RvcCBvZmZzZXQ9IjEiIHN0eWxlPSJzdG9wLWNvbG9yOiMwRTg2Q0YiLz4mI3hhOwkJCTwvcmFkaWFsR3JhZGllbnQ+JiN4YTsJCQk8cGF0aCBpZD0icGF0aDgzNTgyIiBpbmtzY2FwZTpjb25uZWN0b3ItY3VydmF0dXJlPSIwIiBzdHlsZT0iZmlsbDp1cmwoI3BhdGg4MzU4Ml8xXyk7IiBkPSJNMTYuNDcsMTkuNTFoMTIuMDZMMi45Nyw0OS41ICAgICBMMCwzNy41MkwxNi40NywxOS41MXoiLz4mI3hhOwkJPC9nPiYjeGE7CQk8ZyBpZD0ic2hhcGU1MDc5LTE0IiB0cmFuc2Zvcm09InRyYW5zbGF0ZSgyNC4wMykiPiYjeGE7CQkJPHRpdGxlIGlkPSJ0aXRsZTgzNTg1Ij5wb2x5Z29uMTUwMjE8L3RpdGxlPiYjeGE7CQkJJiN4YTsJCQkJPHJhZGlhbEdyYWRpZW50IGlkPSJwYXRoODM1ODdfMV8iIGN4PSIyNi4xMTIiIGN5PSI2My45NTc4IiByPSIxMS45MDE4IiBncmFkaWVudFRyYW5zZm9ybT0ibWF0cml4KDAuODgxIDAgMCAtMS4xMzUxIC0xMi41MTg2IDEwOC41OTAxKSIgZ3JhZGllbnRVbml0cz0idXNlclNwYWNlT25Vc2UiPiYjeGE7CQkJCTxzdG9wIG9mZnNldD0iMCIgc3R5bGU9InN0b3AtY29sb3I6IzBFOTBDRiIvPiYjeGE7CQkJCTxzdG9wIG9mZnNldD0iMSIgc3R5bGU9InN0b3AtY29sb3I6IzAwNkRBQSIvPiYjeGE7CQkJPC9yYWRpYWxHcmFkaWVudD4mI3hhOwkJCTxwYXRoIGlkPSJwYXRoODM1ODciIGlua3NjYXBlOmNvbm5lY3Rvci1jdXJ2YXR1cmU9IjAiIHN0eWxlPSJmaWxsOnVybCgjcGF0aDgzNTg3XzFfKTsiIGQ9Ik03LjQ3LDIyLjQ4bDEzLjUsMTUuMDRMMTgsNDkuNSAgICAgTDAsMzEuNDhMNy40NywyMi40OHoiLz4mI3hhOwkJPC9nPiYjeGE7CTwvZz4mI3hhOzwvZz4mI3hhOzwvc3ZnPg==;" parent="cTBxlqMjr0OGGQ4enT8b-20" vertex="1">
          <mxGeometry width="45" height="48" as="geometry" />
        </mxCell>
        <mxCell id="cTBxlqMjr0OGGQ4enT8b-15" value="" style="verticalLabelPosition=bottom;html=1;verticalAlign=top;align=center;strokeColor=none;fillColor=#00BEF2;shape=mxgraph.azure.azure_sdk;" parent="cTBxlqMjr0OGGQ4enT8b-20" vertex="1">
          <mxGeometry x="29" y="3.999999999998181" width="16" height="14.5" as="geometry" />
        </mxCell>
        <mxCell id="cTBxlqMjr0OGGQ4enT8b-23" value="" style="group" parent="HRm0Tem71c5kKFzc_Awa-1" vertex="1" connectable="0">
          <mxGeometry x="130" y="150" width="18" height="68" as="geometry" />
        </mxCell>
        <mxCell id="cTBxlqMjr0OGGQ4enT8b-5" value="" style="shape=image;verticalLabelPosition=bottom;labelBackgroundColor=#ffffff;verticalAlign=top;aspect=fixed;imageAspect=0;image=data:image/svg+xml,PHN2ZyB4bWxuczpjYz0iaHR0cDovL2NyZWF0aXZlY29tbW9ucy5vcmcvbnMjIiB4bWxuczpkYz0iaHR0cDovL3B1cmwub3JnL2RjL2VsZW1lbnRzLzEuMS8iIHhtbG5zOmlua3NjYXBlPSJodHRwOi8vd3d3Lmlua3NjYXBlLm9yZy9uYW1lc3BhY2VzL2lua3NjYXBlIiB4bWxuczpyZGY9Imh0dHA6Ly93d3cudzMub3JnLzE5OTkvMDIvMjItcmRmLXN5bnRheC1ucyMiIHhtbG5zOnNvZGlwb2RpPSJodHRwOi8vc29kaXBvZGkuc291cmNlZm9yZ2UubmV0L0RURC9zb2RpcG9kaS0wLmR0ZCIgeG1sbnM6c3ZnPSJodHRwOi8vd3d3LnczLm9yZy8yMDAwL3N2ZyIgeG1sbnM9Imh0dHA6Ly93d3cudzMub3JnLzIwMDAvc3ZnIiB4bWxuczp4bGluaz0iaHR0cDovL3d3dy53My5vcmcvMTk5OS94bGluayIgdmVyc2lvbj0iMS4xIiBpZD0ic3ZnNDQ4MjAiIGlua3NjYXBlOnZlcnNpb249IjAuOTIuMyAoMjQwNTU0NiwgMjAxOC0wMy0xMSkiIHNvZGlwb2RpOmRvY25hbWU9ImZpbGUuc3ZnIiB4PSIwcHgiIHk9IjBweCIgdmlld0JveD0iMCAwIDI0Ljg1IDMyLjk4IiBzdHlsZT0iZW5hYmxlLWJhY2tncm91bmQ6bmV3IDAgMCAyNC44NSAzMi45ODsiIHhtbDpzcGFjZT0icHJlc2VydmUiPiYjeGE7PHNvZGlwb2RpOm5hbWVkdmlldyBib3JkZXJjb2xvcj0iIzY2NjY2NiIgYm9yZGVyb3BhY2l0eT0iMSIgZml0LW1hcmdpbi1ib3R0b209IjAiIGZpdC1tYXJnaW4tbGVmdD0iMCIgZml0LW1hcmdpbi1yaWdodD0iMCIgZml0LW1hcmdpbi10b3A9IjAiIGdyaWR0b2xlcmFuY2U9IjEwIiBndWlkZXRvbGVyYW5jZT0iMTAiIGlkPSJuYW1lZHZpZXc0NDgyMiIgaW5rc2NhcGU6Y3VycmVudC1sYXllcj0ic3ZnNDQ4MjAiIGlua3NjYXBlOmN4PSIxNi41NzAyNTYiIGlua3NjYXBlOmN5PSIyMS45ODc3MTgiIGlua3NjYXBlOnBhZ2VvcGFjaXR5PSIwIiBpbmtzY2FwZTpwYWdlc2hhZG93PSIyIiBpbmtzY2FwZTp3aW5kb3ctaGVpZ2h0PSIxMDE3IiBpbmtzY2FwZTp3aW5kb3ctbWF4aW1pemVkPSIxIiBpbmtzY2FwZTp3aW5kb3ctd2lkdGg9IjE5MjAiIGlua3NjYXBlOndpbmRvdy14PSItOCIgaW5rc2NhcGU6d2luZG93LXk9Ii04IiBpbmtzY2FwZTp6b29tPSIxOC44NTk2MjEiIG9iamVjdHRvbGVyYW5jZT0iMTAiIHBhZ2Vjb2xvcj0iI2ZmZmZmZiIgc2hvd2dyaWQ9ImZhbHNlIj4mI3hhOwk8L3NvZGlwb2RpOm5hbWVkdmlldz4mI3hhOzxnIGlkPSJnNDQ4MTgiIHRyYW5zZm9ybT0idHJhbnNsYXRlKC0wLjc1LC0wLjc0NjY0MDQ3KSI+JiN4YTsJPHRpdGxlIGlkPSJ0aXRsZTQ0NzY2Ij5QYWdlLTE8L3RpdGxlPiYjeGE7CTxnIGlkPSJncm91cDM5MjQtMSIgdHJhbnNmb3JtPSJ0cmFuc2xhdGUoMS41LC0xLjUpIj4mI3hhOwkJPHRpdGxlIGlkPSJ0aXRsZTQ0NzY4Ij5GaWxlPC90aXRsZT4mI3hhOwkJPGcgaWQ9InNoYXBlMzkyNS0yIj4mI3hhOwkJCTx0aXRsZSBpZD0idGl0bGU0NDc3MCI+cG9seWdvbjE1OTEyPC90aXRsZT4mI3hhOwkJCTxwYXRoIGlkPSJwYXRoNDQ3NzIiIGlua3NjYXBlOmNvbm5lY3Rvci1jdXJ2YXR1cmU9IjAiIHN0eWxlPSJmaWxsOiNGRkZGRkY7IiBkPSJNMjMuODYsMzQuNDhIMFYyLjQ5aDEzLjM1TDIzLjg2LDEyLjVWMzQuNDh6Ii8+JiN4YTsJCTwvZz4mI3hhOwkJPGcgaWQ9InNoYXBlMzkyNi00IiB0cmFuc2Zvcm09InRyYW5zbGF0ZSgxMy4yLC0yMS44MzA4KSI+JiN4YTsJCQk8dGl0bGUgaWQ9InRpdGxlNDQ3NzUiPnBvbHlnb24xNTkxNDwvdGl0bGU+JiN4YTsJCQk8cGF0aCBpZD0icGF0aDQ0Nzc3IiBpbmtzY2FwZTpjb25uZWN0b3ItY3VydmF0dXJlPSIwIiBzdHlsZT0iZmlsbDojNTVEMkY2OyIgZD0iTTEwLjY2LDM0LjQ4SDBWMjQuMzJMMTAuNjYsMzQuNDh6Ii8+JiN4YTsJCTwvZz4mI3hhOwkJPGcgaWQ9InNoYXBlMzkyNy02Ij4mI3hhOwkJCTx0aXRsZSBpZD0idGl0bGU0NDc4MCI+cGF0aDE1OTE2PC90aXRsZT4mI3hhOwkJCSYjeGE7CQkJCTxwYXRoIGlkPSJwYXRoNDQ3ODIiIGlua3NjYXBlOmNvbm5lY3Rvci1jdXJ2YXR1cmU9IjAiIHN0eWxlPSJmaWxsOm5vbmU7c3Ryb2tlOiM1NTZBOEE7c3Ryb2tlLXdpZHRoOjEuNTtzdHJva2UtbWl0ZXJsaW1pdDozOyIgZD0iICAgICBNMTMuMzksM0gwLjc0QzAuNDcsMywwLDIuOTcsMCwzLjI0djMwLjQ5YzAuMDksMC4zNywwLjM3LDAuNjYsMC43NCwwLjc1aDIyLjM4YzAuMjcsMCwwLjIzLTAuNDcsMC4yMy0wLjc1VjEyLjU4TDEzLjM5LDN6Ii8+JiN4YTsJCTwvZz4mI3hhOwkJPGcgaWQ9InNoYXBlMzkyOC04IiB0cmFuc2Zvcm09InRyYW5zbGF0ZSgwLjUwNzY5MiwtMC41MDc2OTIpIj4mI3hhOwkJCTx0aXRsZSBpZD0idGl0bGU0NDc4NSI+cmVjdDE1OTE4PC90aXRsZT4mI3hhOwkJCTxyZWN0IGlkPSJyZWN0NDQ3ODciIHg9IjAiIHk9IjQuMDIiIHN0eWxlPSJmaWxsOiNFNUU1RTU7IiB3aWR0aD0iOC4xMiIgaGVpZ2h0PSIzMC40NiIvPiYjeGE7CQk8L2c+JiN4YTsJCTxnIGlkPSJzaGFwZTM5MjktMTAiIHRyYW5zZm9ybT0idHJhbnNsYXRlKDEyLjY5MjMsLTIxLjMyMzEpIj4mI3hhOwkJCTx0aXRsZSBpZD0idGl0bGU0NDc5MCI+cG9seWxpbmUxNTkyMDwvdGl0bGU+JiN4YTsJCQk8cGF0aCBpZD0icGF0aDQ0NzkyIiBpbmtzY2FwZTpjb25uZWN0b3ItY3VydmF0dXJlPSIwIiBzdHlsZT0iZmlsbDpub25lOyIgZD0iTTAsMjQuMzJ2MTAuMTZoMTAuNjZMMCwyNC4zMnoiLz4mI3hhOwkJCSYjeGE7CQkJCTxwYXRoIGlkPSJwYXRoNDQ3OTQiIGlua3NjYXBlOmNvbm5lY3Rvci1jdXJ2YXR1cmU9IjAiIHN0eWxlPSJmaWxsOm5vbmU7c3Ryb2tlOiM1NTZBOEE7c3Ryb2tlLXdpZHRoOjEuNTtzdHJva2UtbWl0ZXJsaW1pdDozOyIgZD0iICAgICBNMCwyNC4zMnYxMC4xNmgxMC42NiIvPiYjeGE7CQk8L2c+JiN4YTsJCTxnIGlkPSJzaGFwZTM5MzAtMTMiIHRyYW5zZm9ybT0idHJhbnNsYXRlKDMuNTUzODUsLTIwLjgxNTQpIj4mI3hhOwkJCTx0aXRsZSBpZD0idGl0bGU0NDc5NyI+bGluZTE1OTIyPC90aXRsZT4mI3hhOwkJCSYjeGE7CQkJCTxwYXRoIGlkPSJwYXRoNDQ3OTkiIGlua3NjYXBlOmNvbm5lY3Rvci1jdXJ2YXR1cmU9IjAiIHN0eWxlPSJmaWxsOm5vbmU7c3Ryb2tlOiNBN0E5QUM7c3Ryb2tlLXdpZHRoOjEuNTtzdHJva2UtbWl0ZXJsaW1pdDozOyIgZD0iICAgICBNMCwzNC40OGg2LjYiLz4mI3hhOwkJPC9nPiYjeGE7CQk8ZyBpZD0ic2hhcGUzOTMxLTE2IiB0cmFuc2Zvcm09InRyYW5zbGF0ZSgzLjU1Mzg1LC0xNi4yNDYyKSI+JiN4YTsJCQk8dGl0bGUgaWQ9InRpdGxlNDQ4MDIiPmxpbmUxNTkyNDwvdGl0bGU+JiN4YTsJCQkmI3hhOwkJCQk8cGF0aCBpZD0icGF0aDQ0ODA0IiBpbmtzY2FwZTpjb25uZWN0b3ItY3VydmF0dXJlPSIwIiBzdHlsZT0iZmlsbDpub25lO3N0cm9rZTojQTdBOUFDO3N0cm9rZS13aWR0aDoxLjU7c3Ryb2tlLW1pdGVybGltaXQ6MzsiIGQ9IiAgICAgTTAsMzQuNDhoMTYuMjUiLz4mI3hhOwkJPC9nPiYjeGE7CQk8ZyBpZD0ic2hhcGUzOTMyLTE5IiB0cmFuc2Zvcm09InRyYW5zbGF0ZSgzLjU1Mzg1LC0xMS42NzY5KSI+JiN4YTsJCQk8dGl0bGUgaWQ9InRpdGxlNDQ4MDciPmxpbmUxNTkyNjwvdGl0bGU+JiN4YTsJCQkmI3hhOwkJCQk8cGF0aCBpZD0icGF0aDQ0ODA5IiBpbmtzY2FwZTpjb25uZWN0b3ItY3VydmF0dXJlPSIwIiBzdHlsZT0iZmlsbDpub25lO3N0cm9rZTojQTdBOUFDO3N0cm9rZS13aWR0aDoxLjU7c3Ryb2tlLW1pdGVybGltaXQ6MzsiIGQ9IiAgICAgTTAsMzQuNDhoMTYuMjUiLz4mI3hhOwkJPC9nPiYjeGE7CQk8ZyBpZD0ic2hhcGUzOTMzLTIyIiB0cmFuc2Zvcm09InRyYW5zbGF0ZSgzLjU1Mzg1LC03LjEwNzY5KSI+JiN4YTsJCQk8dGl0bGUgaWQ9InRpdGxlNDQ4MTIiPmxpbmUxNTkyODwvdGl0bGU+JiN4YTsJCQkmI3hhOwkJCQk8cGF0aCBpZD0icGF0aDQ0ODE0IiBpbmtzY2FwZTpjb25uZWN0b3ItY3VydmF0dXJlPSIwIiBzdHlsZT0iZmlsbDpub25lO3N0cm9rZTojQTdBOUFDO3N0cm9rZS13aWR0aDoxLjU7c3Ryb2tlLW1pdGVybGltaXQ6MzsiIGQ9IiAgICAgTTAsMzQuNDhoMTYuMjUiLz4mI3hhOwkJPC9nPiYjeGE7CTwvZz4mI3hhOzwvZz4mI3hhOzwvc3ZnPg==;" parent="cTBxlqMjr0OGGQ4enT8b-23" vertex="1">
          <mxGeometry y="30" width="17.43" height="23" as="geometry" />
        </mxCell>
        <mxCell id="cTBxlqMjr0OGGQ4enT8b-40" value="" style="group" parent="cTBxlqMjr0OGGQ4enT8b-23" vertex="1" connectable="0">
          <mxGeometry x="-60" y="30" width="78" height="30" as="geometry" />
        </mxCell>
        <mxCell id="cTBxlqMjr0OGGQ4enT8b-37" value="" style="group" parent="cTBxlqMjr0OGGQ4enT8b-40" vertex="1" connectable="0">
          <mxGeometry width="78" height="30" as="geometry" />
        </mxCell>
        <mxCell id="cTBxlqMjr0OGGQ4enT8b-38" value="Train.py" style="rounded=1;whiteSpace=wrap;html=1;" parent="cTBxlqMjr0OGGQ4enT8b-37" vertex="1">
          <mxGeometry width="78" height="30" as="geometry" />
        </mxCell>
        <mxCell id="cTBxlqMjr0OGGQ4enT8b-39" value="" style="shape=image;verticalLabelPosition=bottom;labelBackgroundColor=#ffffff;verticalAlign=top;aspect=fixed;imageAspect=0;image=data:image/svg+xml,PHN2ZyB4bWxuczpjYz0iaHR0cDovL2NyZWF0aXZlY29tbW9ucy5vcmcvbnMjIiB4bWxuczpkYz0iaHR0cDovL3B1cmwub3JnL2RjL2VsZW1lbnRzLzEuMS8iIHhtbG5zOmlua3NjYXBlPSJodHRwOi8vd3d3Lmlua3NjYXBlLm9yZy9uYW1lc3BhY2VzL2lua3NjYXBlIiB4bWxuczpyZGY9Imh0dHA6Ly93d3cudzMub3JnLzE5OTkvMDIvMjItcmRmLXN5bnRheC1ucyMiIHhtbG5zOnNvZGlwb2RpPSJodHRwOi8vc29kaXBvZGkuc291cmNlZm9yZ2UubmV0L0RURC9zb2RpcG9kaS0wLmR0ZCIgeG1sbnM6c3ZnPSJodHRwOi8vd3d3LnczLm9yZy8yMDAwL3N2ZyIgeG1sbnM9Imh0dHA6Ly93d3cudzMub3JnLzIwMDAvc3ZnIiB4bWxuczp4bGluaz0iaHR0cDovL3d3dy53My5vcmcvMTk5OS94bGluayIgdmVyc2lvbj0iMS4xIiBpZD0ic3ZnNDQ4MjAiIGlua3NjYXBlOnZlcnNpb249IjAuOTIuMyAoMjQwNTU0NiwgMjAxOC0wMy0xMSkiIHNvZGlwb2RpOmRvY25hbWU9ImZpbGUuc3ZnIiB4PSIwcHgiIHk9IjBweCIgdmlld0JveD0iMCAwIDI0Ljg1IDMyLjk4IiBzdHlsZT0iZW5hYmxlLWJhY2tncm91bmQ6bmV3IDAgMCAyNC44NSAzMi45ODsiIHhtbDpzcGFjZT0icHJlc2VydmUiPiYjeGE7PHNvZGlwb2RpOm5hbWVkdmlldyBib3JkZXJjb2xvcj0iIzY2NjY2NiIgYm9yZGVyb3BhY2l0eT0iMSIgZml0LW1hcmdpbi1ib3R0b209IjAiIGZpdC1tYXJnaW4tbGVmdD0iMCIgZml0LW1hcmdpbi1yaWdodD0iMCIgZml0LW1hcmdpbi10b3A9IjAiIGdyaWR0b2xlcmFuY2U9IjEwIiBndWlkZXRvbGVyYW5jZT0iMTAiIGlkPSJuYW1lZHZpZXc0NDgyMiIgaW5rc2NhcGU6Y3VycmVudC1sYXllcj0ic3ZnNDQ4MjAiIGlua3NjYXBlOmN4PSIxNi41NzAyNTYiIGlua3NjYXBlOmN5PSIyMS45ODc3MTgiIGlua3NjYXBlOnBhZ2VvcGFjaXR5PSIwIiBpbmtzY2FwZTpwYWdlc2hhZG93PSIyIiBpbmtzY2FwZTp3aW5kb3ctaGVpZ2h0PSIxMDE3IiBpbmtzY2FwZTp3aW5kb3ctbWF4aW1pemVkPSIxIiBpbmtzY2FwZTp3aW5kb3ctd2lkdGg9IjE5MjAiIGlua3NjYXBlOndpbmRvdy14PSItOCIgaW5rc2NhcGU6d2luZG93LXk9Ii04IiBpbmtzY2FwZTp6b29tPSIxOC44NTk2MjEiIG9iamVjdHRvbGVyYW5jZT0iMTAiIHBhZ2Vjb2xvcj0iI2ZmZmZmZiIgc2hvd2dyaWQ9ImZhbHNlIj4mI3hhOwk8L3NvZGlwb2RpOm5hbWVkdmlldz4mI3hhOzxnIGlkPSJnNDQ4MTgiIHRyYW5zZm9ybT0idHJhbnNsYXRlKC0wLjc1LC0wLjc0NjY0MDQ3KSI+JiN4YTsJPHRpdGxlIGlkPSJ0aXRsZTQ0NzY2Ij5QYWdlLTE8L3RpdGxlPiYjeGE7CTxnIGlkPSJncm91cDM5MjQtMSIgdHJhbnNmb3JtPSJ0cmFuc2xhdGUoMS41LC0xLjUpIj4mI3hhOwkJPHRpdGxlIGlkPSJ0aXRsZTQ0NzY4Ij5GaWxlPC90aXRsZT4mI3hhOwkJPGcgaWQ9InNoYXBlMzkyNS0yIj4mI3hhOwkJCTx0aXRsZSBpZD0idGl0bGU0NDc3MCI+cG9seWdvbjE1OTEyPC90aXRsZT4mI3hhOwkJCTxwYXRoIGlkPSJwYXRoNDQ3NzIiIGlua3NjYXBlOmNvbm5lY3Rvci1jdXJ2YXR1cmU9IjAiIHN0eWxlPSJmaWxsOiNGRkZGRkY7IiBkPSJNMjMuODYsMzQuNDhIMFYyLjQ5aDEzLjM1TDIzLjg2LDEyLjVWMzQuNDh6Ii8+JiN4YTsJCTwvZz4mI3hhOwkJPGcgaWQ9InNoYXBlMzkyNi00IiB0cmFuc2Zvcm09InRyYW5zbGF0ZSgxMy4yLC0yMS44MzA4KSI+JiN4YTsJCQk8dGl0bGUgaWQ9InRpdGxlNDQ3NzUiPnBvbHlnb24xNTkxNDwvdGl0bGU+JiN4YTsJCQk8cGF0aCBpZD0icGF0aDQ0Nzc3IiBpbmtzY2FwZTpjb25uZWN0b3ItY3VydmF0dXJlPSIwIiBzdHlsZT0iZmlsbDojNTVEMkY2OyIgZD0iTTEwLjY2LDM0LjQ4SDBWMjQuMzJMMTAuNjYsMzQuNDh6Ii8+JiN4YTsJCTwvZz4mI3hhOwkJPGcgaWQ9InNoYXBlMzkyNy02Ij4mI3hhOwkJCTx0aXRsZSBpZD0idGl0bGU0NDc4MCI+cGF0aDE1OTE2PC90aXRsZT4mI3hhOwkJCSYjeGE7CQkJCTxwYXRoIGlkPSJwYXRoNDQ3ODIiIGlua3NjYXBlOmNvbm5lY3Rvci1jdXJ2YXR1cmU9IjAiIHN0eWxlPSJmaWxsOm5vbmU7c3Ryb2tlOiM1NTZBOEE7c3Ryb2tlLXdpZHRoOjEuNTtzdHJva2UtbWl0ZXJsaW1pdDozOyIgZD0iICAgICBNMTMuMzksM0gwLjc0QzAuNDcsMywwLDIuOTcsMCwzLjI0djMwLjQ5YzAuMDksMC4zNywwLjM3LDAuNjYsMC43NCwwLjc1aDIyLjM4YzAuMjcsMCwwLjIzLTAuNDcsMC4yMy0wLjc1VjEyLjU4TDEzLjM5LDN6Ii8+JiN4YTsJCTwvZz4mI3hhOwkJPGcgaWQ9InNoYXBlMzkyOC04IiB0cmFuc2Zvcm09InRyYW5zbGF0ZSgwLjUwNzY5MiwtMC41MDc2OTIpIj4mI3hhOwkJCTx0aXRsZSBpZD0idGl0bGU0NDc4NSI+cmVjdDE1OTE4PC90aXRsZT4mI3hhOwkJCTxyZWN0IGlkPSJyZWN0NDQ3ODciIHg9IjAiIHk9IjQuMDIiIHN0eWxlPSJmaWxsOiNFNUU1RTU7IiB3aWR0aD0iOC4xMiIgaGVpZ2h0PSIzMC40NiIvPiYjeGE7CQk8L2c+JiN4YTsJCTxnIGlkPSJzaGFwZTM5MjktMTAiIHRyYW5zZm9ybT0idHJhbnNsYXRlKDEyLjY5MjMsLTIxLjMyMzEpIj4mI3hhOwkJCTx0aXRsZSBpZD0idGl0bGU0NDc5MCI+cG9seWxpbmUxNTkyMDwvdGl0bGU+JiN4YTsJCQk8cGF0aCBpZD0icGF0aDQ0NzkyIiBpbmtzY2FwZTpjb25uZWN0b3ItY3VydmF0dXJlPSIwIiBzdHlsZT0iZmlsbDpub25lOyIgZD0iTTAsMjQuMzJ2MTAuMTZoMTAuNjZMMCwyNC4zMnoiLz4mI3hhOwkJCSYjeGE7CQkJCTxwYXRoIGlkPSJwYXRoNDQ3OTQiIGlua3NjYXBlOmNvbm5lY3Rvci1jdXJ2YXR1cmU9IjAiIHN0eWxlPSJmaWxsOm5vbmU7c3Ryb2tlOiM1NTZBOEE7c3Ryb2tlLXdpZHRoOjEuNTtzdHJva2UtbWl0ZXJsaW1pdDozOyIgZD0iICAgICBNMCwyNC4zMnYxMC4xNmgxMC42NiIvPiYjeGE7CQk8L2c+JiN4YTsJCTxnIGlkPSJzaGFwZTM5MzAtMTMiIHRyYW5zZm9ybT0idHJhbnNsYXRlKDMuNTUzODUsLTIwLjgxNTQpIj4mI3hhOwkJCTx0aXRsZSBpZD0idGl0bGU0NDc5NyI+bGluZTE1OTIyPC90aXRsZT4mI3hhOwkJCSYjeGE7CQkJCTxwYXRoIGlkPSJwYXRoNDQ3OTkiIGlua3NjYXBlOmNvbm5lY3Rvci1jdXJ2YXR1cmU9IjAiIHN0eWxlPSJmaWxsOm5vbmU7c3Ryb2tlOiNBN0E5QUM7c3Ryb2tlLXdpZHRoOjEuNTtzdHJva2UtbWl0ZXJsaW1pdDozOyIgZD0iICAgICBNMCwzNC40OGg2LjYiLz4mI3hhOwkJPC9nPiYjeGE7CQk8ZyBpZD0ic2hhcGUzOTMxLTE2IiB0cmFuc2Zvcm09InRyYW5zbGF0ZSgzLjU1Mzg1LC0xNi4yNDYyKSI+JiN4YTsJCQk8dGl0bGUgaWQ9InRpdGxlNDQ4MDIiPmxpbmUxNTkyNDwvdGl0bGU+JiN4YTsJCQkmI3hhOwkJCQk8cGF0aCBpZD0icGF0aDQ0ODA0IiBpbmtzY2FwZTpjb25uZWN0b3ItY3VydmF0dXJlPSIwIiBzdHlsZT0iZmlsbDpub25lO3N0cm9rZTojQTdBOUFDO3N0cm9rZS13aWR0aDoxLjU7c3Ryb2tlLW1pdGVybGltaXQ6MzsiIGQ9IiAgICAgTTAsMzQuNDhoMTYuMjUiLz4mI3hhOwkJPC9nPiYjeGE7CQk8ZyBpZD0ic2hhcGUzOTMyLTE5IiB0cmFuc2Zvcm09InRyYW5zbGF0ZSgzLjU1Mzg1LC0xMS42NzY5KSI+JiN4YTsJCQk8dGl0bGUgaWQ9InRpdGxlNDQ4MDciPmxpbmUxNTkyNjwvdGl0bGU+JiN4YTsJCQkmI3hhOwkJCQk8cGF0aCBpZD0icGF0aDQ0ODA5IiBpbmtzY2FwZTpjb25uZWN0b3ItY3VydmF0dXJlPSIwIiBzdHlsZT0iZmlsbDpub25lO3N0cm9rZTojQTdBOUFDO3N0cm9rZS13aWR0aDoxLjU7c3Ryb2tlLW1pdGVybGltaXQ6MzsiIGQ9IiAgICAgTTAsMzQuNDhoMTYuMjUiLz4mI3hhOwkJPC9nPiYjeGE7CQk8ZyBpZD0ic2hhcGUzOTMzLTIyIiB0cmFuc2Zvcm09InRyYW5zbGF0ZSgzLjU1Mzg1LC03LjEwNzY5KSI+JiN4YTsJCQk8dGl0bGUgaWQ9InRpdGxlNDQ4MTIiPmxpbmUxNTkyODwvdGl0bGU+JiN4YTsJCQkmI3hhOwkJCQk8cGF0aCBpZD0icGF0aDQ0ODE0IiBpbmtzY2FwZTpjb25uZWN0b3ItY3VydmF0dXJlPSIwIiBzdHlsZT0iZmlsbDpub25lO3N0cm9rZTojQTdBOUFDO3N0cm9rZS13aWR0aDoxLjU7c3Ryb2tlLW1pdGVybGltaXQ6MzsiIGQ9IiAgICAgTTAsMzQuNDhoMTYuMjUiLz4mI3hhOwkJPC9nPiYjeGE7CTwvZz4mI3hhOzwvZz4mI3hhOzwvc3ZnPg==;" parent="cTBxlqMjr0OGGQ4enT8b-40" vertex="1">
          <mxGeometry x="65.96000000000001" y="1.5" width="10.733210526315789" height="14.163157894736843" as="geometry" />
        </mxCell>
        <mxCell id="cTBxlqMjr0OGGQ4enT8b-25" value="" style="group" parent="HRm0Tem71c5kKFzc_Awa-1" vertex="1" connectable="0">
          <mxGeometry x="200" y="350" width="100" height="40" as="geometry" />
        </mxCell>
        <mxCell id="cTBxlqMjr0OGGQ4enT8b-22" value="Create Experiment" style="rounded=1;whiteSpace=wrap;html=1;" parent="cTBxlqMjr0OGGQ4enT8b-25" vertex="1">
          <mxGeometry width="100" height="40" as="geometry" />
        </mxCell>
        <mxCell id="cTBxlqMjr0OGGQ4enT8b-2" value="" style="shape=image;verticalLabelPosition=bottom;labelBackgroundColor=#ffffff;verticalAlign=top;aspect=fixed;imageAspect=0;image=data:image/svg+xml,PHN2ZyB4bWxuczpjYz0iaHR0cDovL2NyZWF0aXZlY29tbW9ucy5vcmcvbnMjIiB4bWxuczpkYz0iaHR0cDovL3B1cmwub3JnL2RjL2VsZW1lbnRzLzEuMS8iIHhtbG5zOmlua3NjYXBlPSJodHRwOi8vd3d3Lmlua3NjYXBlLm9yZy9uYW1lc3BhY2VzL2lua3NjYXBlIiB4bWxuczpyZGY9Imh0dHA6Ly93d3cudzMub3JnLzE5OTkvMDIvMjItcmRmLXN5bnRheC1ucyMiIHhtbG5zOnNvZGlwb2RpPSJodHRwOi8vc29kaXBvZGkuc291cmNlZm9yZ2UubmV0L0RURC9zb2RpcG9kaS0wLmR0ZCIgeG1sbnM6c3ZnPSJodHRwOi8vd3d3LnczLm9yZy8yMDAwL3N2ZyIgeG1sbnM9Imh0dHA6Ly93d3cudzMub3JnLzIwMDAvc3ZnIiB4bWxuczp4bGluaz0iaHR0cDovL3d3dy53My5vcmcvMTk5OS94bGluayIgdmVyc2lvbj0iMS4xIiBpZD0ic3ZnMTgzOTQzIiBpbmtzY2FwZTp2ZXJzaW9uPSIwLjkyLjMgKDI0MDU1NDYsIDIwMTgtMDMtMTEpIiBzb2RpcG9kaTpkb2NuYW1lPSJtYW51YWxfdGVzdGluZy5zdmciIHg9IjBweCIgeT0iMHB4IiB2aWV3Qm94PSIwIDAgNDUuMDMgNDguMDQiIHN0eWxlPSJlbmFibGUtYmFja2dyb3VuZDpuZXcgMCAwIDQ1LjAzIDQ4LjA0OyIgeG1sOnNwYWNlPSJwcmVzZXJ2ZSI+JiN4YTs8c29kaXBvZGk6bmFtZWR2aWV3IGJvcmRlcmNvbG9yPSIjNjY2NjY2IiBib3JkZXJvcGFjaXR5PSIxIiBmaXQtbWFyZ2luLWJvdHRvbT0iMCIgZml0LW1hcmdpbi1sZWZ0PSIwIiBmaXQtbWFyZ2luLXJpZ2h0PSIwIiBmaXQtbWFyZ2luLXRvcD0iMCIgZ3JpZHRvbGVyYW5jZT0iMTAiIGd1aWRldG9sZXJhbmNlPSIxMCIgaWQ9Im5hbWVkdmlldzE4Mzk0NSIgaW5rc2NhcGU6Y3VycmVudC1sYXllcj0ic3ZnMTgzOTQzIiBpbmtzY2FwZTpjeD0iNDMuOTE4MzEiIGlua3NjYXBlOmN5PSIyMS4xMjMyMTkiIGlua3NjYXBlOnBhZ2VvcGFjaXR5PSIwIiBpbmtzY2FwZTpwYWdlc2hhZG93PSIyIiBpbmtzY2FwZTp3aW5kb3ctaGVpZ2h0PSIxMDE3IiBpbmtzY2FwZTp3aW5kb3ctbWF4aW1pemVkPSIxIiBpbmtzY2FwZTp3aW5kb3ctd2lkdGg9IjE5MjAiIGlua3NjYXBlOndpbmRvdy14PSItOCIgaW5rc2NhcGU6d2luZG93LXk9Ii04IiBpbmtzY2FwZTp6b29tPSI5LjI4MTc3NzkiIG9iamVjdHRvbGVyYW5jZT0iMTAiIHBhZ2Vjb2xvcj0iI2ZmZmZmZiIgc2hvd2dyaWQ9ImZhbHNlIj4mI3hhOwk8L3NvZGlwb2RpOm5hbWVkdmlldz4mI3hhOzxwYXRoIGlkPSJwYXRoMTgzODc3IiBpbmtzY2FwZTpjb25uZWN0b3ItY3VydmF0dXJlPSIwIiBzdHlsZT0iZmlsbDojRkZGRkZGOyIgZD0iTTQwLjM1LDM3LjVjLTAuMzItMC41OC0wLjkzLTEuNTgtMS43LTIuODMgIGMtMC43OC0xLjI1LTEuNzctMi44Ni0yLjgxLTQuNWMtMS4zLTIuMDUtMi42OC00LjIzLTMuOS02LjE1Yy0xLjUtMi4zNy0yLjc4LTQuMzYtMy40LTUuM1Y1LjI1YzAsMCwxLjUtMS41LDEuNS0zICBjMC0wLjc1LTAuNzUtMS41LTIuMjUtMS41aC0xMy41Yy0xLjUsMC0yLjI1LDAuNzUtMi4yNSwxLjVjMCwxLjUsMS41LDMsMS41LDN2MTMuNWMtMC42MywwLjk0LTEuOSwyLjkzLTMuNDEsNS4zICBjLTEuMjIsMS45Mi0yLjYsNC4xLTMuOSw2LjE1Yy0xLjAzLDEuNjQtMi4wMSwzLjIxLTIuOCw0LjVjLTAuOCwxLjI5LTEuMzgsMi4yNS0xLjcxLDIuODNjLTEuODcsMi45Ny0wLjk4LDYuOSwxLjk5LDguNzcgIGMxLDAuNjMsMi4xNSwwLjk3LDMuMzMsMC45OGgyNy45OWMzLjUxLTAuMDMsNi4zMy0yLjkxLDYuMy02LjQyYy0wLjAxLTEuMTgtMC4zNS0yLjMzLTAuOTgtMy4zM1YzNy41eiIvPiYjeGE7PHBhdGggaWQ9InBhdGgxODM4ODIiIGlua3NjYXBlOmNvbm5lY3Rvci1jdXJ2YXR1cmU9IjAiIHN0eWxlPSJmaWxsOiM1NUQyRjY7IiBkPSJNNDAuMTksNDMuOTVjLTEuMDIsMS45My0yLjk4LDMuMTktNS4xNiwzLjNINy4wNCAgYy0zLjQzLTAuMTktNi4wNy0zLjEyLTUuODgtNi41NWMwLjA2LTEuMDIsMC4zNi0yLjAxLDAuODktMi44OWMwLjU0LTAuOTgsMS0yLDEuMzctMy4wNmMwLjgtMS4yOSwxLjc3LTIuOTEsMi44MS00LjU2ICBjMS4zLTIuMDQsMi42OC0zLjk0LDMuOS02LjE5aDIxLjgxYzEuMjIsMi4yNSwyLjYsNC4xMiwzLjksNi4xN2MxLjAzLDEuNjQsMi4wMSwzLjIzLDIuOCw0LjVjMC4zNywxLjA3LDAuODQsMi4xMSwxLjM4LDMuMTEgIEM0MS4xNywzOS42Niw0MS4yNCw0Mi4wMSw0MC4xOSw0My45NXoiLz4mI3hhOzxwYXRoIGlkPSJwYXRoMTgzODg3IiBpbmtzY2FwZTpjb25uZWN0b3ItY3VydmF0dXJlPSIwIiBzdHlsZT0iZmlsbDpub25lO3N0cm9rZTojNTU2QThBO3N0cm9rZS13aWR0aDoxLjU7c3Ryb2tlLW1pdGVybGltaXQ6MzsiIGQ9IiAgTTQwLjM1LDM3LjVjLTAuNjYtMS4xOC0yLjQ3LTQuMS00LjUtNy4zM2MtMi45LTQuNTYtNi4xOS05LjcxLTcuMzEtMTEuNDJWNS4yNWMwLDAsMS41LTEuNSwxLjUtM2MwLTAuNzUtMC43NS0xLjUtMi4yNS0xLjVoLTEzLjUgIGMtMS41LDAtMi4yNSwwLjc1LTIuMjUsMS41YzAsMS41LDEuNSwzLDEuNSwzdjEzLjVjLTEuMTMsMS43MS00LjQxLDYuODYtNy4zMSwxMS40NWMtMi4wMywzLjI0LTMuODQsNi4xNS00LjUsNy4zNCAgYy0xLjg3LDIuOTctMC45OCw2LjksMS45OSw4Ljc3YzEsMC42MywyLjE1LDAuOTcsMy4zMywwLjk4aDI3Ljk4YzMuNTEtMC4wMyw2LjMzLTIuOTEsNi4zLTYuNDJjLTAuMDEtMS4xOC0wLjM1LTIuMzMtMC45OC0zLjMzICBWMzcuNXoiLz4mI3hhOzxwYXRoIGlkPSJwYXRoMTgzODkyIiBpbmtzY2FwZTpjb25uZWN0b3ItY3VydmF0dXJlPSIwIiBzdHlsZT0iZmlsbDojRTVFNUU1OyIgZD0iTTI3LjAzLDMuNzVoLTEyYy0wLjQxLDAtMC43NS0wLjM0LTAuNzUtMC43NSAgczAuMzQtMC43NSwwLjc1LTAuNzVoMTJjMC40MSwwLDAuNzUsMC4zNCwwLjc1LDAuNzVTMjcuNDUsMy43NSwyNy4wMywzLjc1eiIvPiYjeGE7PHJlY3QgaWQ9InJlY3QxODM4OTciIHg9Ii0yLjk3IiB5PSIwIiBzdHlsZT0iZmlsbDpub25lOyIgd2lkdGg9IjQ4IiBoZWlnaHQ9IjQ4Ii8+JiN4YTs8cGF0aCBpZD0icGF0aDE4MzkwMiIgaW5rc2NhcGU6Y29ubmVjdG9yLWN1cnZhdHVyZT0iMCIgc3R5bGU9ImZpbGw6I0ZGRkZGRjsiIGQ9Ik0zMy4wNCw0NC42M2MtNi40Mi0wLjAzLTExLjYxLTUuMjYtMTEuNTgtMTEuNjggIHM1LjI2LTExLjYxLDExLjY4LTExLjU4czExLjYxLDUuMjYsMTEuNTgsMTEuNjhjLTAuMDEsMy4wOC0xLjI1LDYuMDMtMy40Myw4LjJDMzkuMSw0My40MywzNi4xMyw0NC42NSwzMy4wNCw0NC42M3oiLz4mI3hhOzxwYXRoIGlkPSJwYXRoMTgzOTA3IiBpbmtzY2FwZTpjb25uZWN0b3ItY3VydmF0dXJlPSIwIiBzdHlsZT0iZmlsbDojNTU2QThBOyIgZD0iTTMzLjAzLDIyLjVjNS44LTAuMDEsMTAuNSw0LjY5LDEwLjUxLDEwLjQ5ICBzLTQuNjksMTAuNS0xMC40OSwxMC41MXMtMTAuNS00LjY5LTEwLjUxLTEwLjQ5YzAtMi43OSwxLjEtNS40NiwzLjA3LTcuNDNDMjcuNTcsMjMuNiwzMC4yNCwyMi40OSwzMy4wMywyMi41eiBNMzMuMDMsMjEgIGMtNi42MywwLTEyLDUuMzctMTIsMTJjMCw2LjYzLDUuMzcsMTIsMTIsMTJzMTItNS4zNywxMi0xMmMwLTMuMTgtMS4yNi02LjIzLTMuNTEtOC40OEMzOS4yNywyMi4yNiwzNi4yMSwyMC45OSwzMy4wMywyMXoiLz4mI3hhOzxwYXRoIGlkPSJwYXRoMTgzOTEyIiBpbmtzY2FwZTpjb25uZWN0b3ItY3VydmF0dXJlPSIwIiBzdHlsZT0iZmlsbDojMkJDN0Y0OyIgZD0iTTMwLjQsMzQuODhsOS4zOCw0Ljg3bC00Ljg3LTkuMzhsLTguNjMtNC4xMiAgTDMwLjQsMzQuODh6Ii8+JiN4YTs8cGF0aCBpZD0icGF0aDE4MzkxNyIgaW5rc2NhcGU6Y29ubmVjdG9yLWN1cnZhdHVyZT0iMCIgc3R5bGU9ImZpbGw6bm9uZTtzdHJva2U6IzU1NkE4QTtzdHJva2Utd2lkdGg6MS41O3N0cm9rZS1taXRlcmxpbWl0OjM7IiBkPSIgIE0zMy4wMywyMi40djMiLz4mI3hhOzxwYXRoIGlkPSJwYXRoMTgzOTIyIiBpbmtzY2FwZTpjb25uZWN0b3ItY3VydmF0dXJlPSIwIiBzdHlsZT0iZmlsbDpub25lO3N0cm9rZTojNTU2QThBO3N0cm9rZS13aWR0aDoxLjU7c3Ryb2tlLW1pdGVybGltaXQ6MzsiIGQ9IiAgTTMzLjAzLDQwLjV2MyIvPiYjeGE7PHBhdGggaWQ9InBhdGgxODM5MjciIGlua3NjYXBlOmNvbm5lY3Rvci1jdXJ2YXR1cmU9IjAiIHN0eWxlPSJmaWxsOm5vbmU7c3Ryb2tlOiM1NTZBOEE7c3Ryb2tlLXdpZHRoOjEuNTtzdHJva2UtbWl0ZXJsaW1pdDozOyIgZD0iICBNMjIuNTMsMzIuMjVoMyIvPiYjeGE7PHBhdGggaWQ9InBhdGgxODM5MzIiIGlua3NjYXBlOmNvbm5lY3Rvci1jdXJ2YXR1cmU9IjAiIHN0eWxlPSJmaWxsOm5vbmU7c3Ryb2tlOiM1NTZBOEE7c3Ryb2tlLXdpZHRoOjEuNTtzdHJva2UtbWl0ZXJsaW1pdDozOyIgZD0iICBNNDAuNTMsMzIuMjVoMyIvPiYjeGE7PGNpcmNsZSBpZD0iZWxsaXBzZTE4MzkzNyIgc3R5bGU9ImZpbGw6I0ZGRkZGRjsiIGN4PSIzMy4wMyIgY3k9IjMzIiByPSIxLjUiLz4mI3hhOzwvc3ZnPg==;" parent="cTBxlqMjr0OGGQ4enT8b-25" vertex="1">
          <mxGeometry x="80" y="2" width="20" height="21.33" as="geometry" />
        </mxCell>
        <mxCell id="cTBxlqMjr0OGGQ4enT8b-26" value="" style="group" parent="HRm0Tem71c5kKFzc_Awa-1" vertex="1" connectable="0">
          <mxGeometry x="369" y="190" width="136" height="40" as="geometry" />
        </mxCell>
        <mxCell id="cTBxlqMjr0OGGQ4enT8b-27" value="Create Policy" style="rounded=1;whiteSpace=wrap;html=1;" parent="cTBxlqMjr0OGGQ4enT8b-26" vertex="1">
          <mxGeometry width="135.99999999999997" height="40" as="geometry" />
        </mxCell>
        <mxCell id="cTBxlqMjr0OGGQ4enT8b-28" value="" style="shape=image;verticalLabelPosition=bottom;labelBackgroundColor=#ffffff;verticalAlign=top;aspect=fixed;imageAspect=0;image=data:image/svg+xml,PHN2ZyB4bWxuczpjYz0iaHR0cDovL2NyZWF0aXZlY29tbW9ucy5vcmcvbnMjIiB4bWxuczpkYz0iaHR0cDovL3B1cmwub3JnL2RjL2VsZW1lbnRzLzEuMS8iIHhtbG5zOmlua3NjYXBlPSJodHRwOi8vd3d3Lmlua3NjYXBlLm9yZy9uYW1lc3BhY2VzL2lua3NjYXBlIiB4bWxuczpyZGY9Imh0dHA6Ly93d3cudzMub3JnLzE5OTkvMDIvMjItcmRmLXN5bnRheC1ucyMiIHhtbG5zOnNvZGlwb2RpPSJodHRwOi8vc29kaXBvZGkuc291cmNlZm9yZ2UubmV0L0RURC9zb2RpcG9kaS0wLmR0ZCIgeG1sbnM6c3ZnPSJodHRwOi8vd3d3LnczLm9yZy8yMDAwL3N2ZyIgeG1sbnM9Imh0dHA6Ly93d3cudzMub3JnLzIwMDAvc3ZnIiB4bWxuczp4bGluaz0iaHR0cDovL3d3dy53My5vcmcvMTk5OS94bGluayIgdmVyc2lvbj0iMS4xIiBpZD0ic3ZnMTgzOTQzIiBpbmtzY2FwZTp2ZXJzaW9uPSIwLjkyLjMgKDI0MDU1NDYsIDIwMTgtMDMtMTEpIiBzb2RpcG9kaTpkb2NuYW1lPSJtYW51YWxfdGVzdGluZy5zdmciIHg9IjBweCIgeT0iMHB4IiB2aWV3Qm94PSIwIDAgNDUuMDMgNDguMDQiIHN0eWxlPSJlbmFibGUtYmFja2dyb3VuZDpuZXcgMCAwIDQ1LjAzIDQ4LjA0OyIgeG1sOnNwYWNlPSJwcmVzZXJ2ZSI+JiN4YTs8c29kaXBvZGk6bmFtZWR2aWV3IGJvcmRlcmNvbG9yPSIjNjY2NjY2IiBib3JkZXJvcGFjaXR5PSIxIiBmaXQtbWFyZ2luLWJvdHRvbT0iMCIgZml0LW1hcmdpbi1sZWZ0PSIwIiBmaXQtbWFyZ2luLXJpZ2h0PSIwIiBmaXQtbWFyZ2luLXRvcD0iMCIgZ3JpZHRvbGVyYW5jZT0iMTAiIGd1aWRldG9sZXJhbmNlPSIxMCIgaWQ9Im5hbWVkdmlldzE4Mzk0NSIgaW5rc2NhcGU6Y3VycmVudC1sYXllcj0ic3ZnMTgzOTQzIiBpbmtzY2FwZTpjeD0iNDMuOTE4MzEiIGlua3NjYXBlOmN5PSIyMS4xMjMyMTkiIGlua3NjYXBlOnBhZ2VvcGFjaXR5PSIwIiBpbmtzY2FwZTpwYWdlc2hhZG93PSIyIiBpbmtzY2FwZTp3aW5kb3ctaGVpZ2h0PSIxMDE3IiBpbmtzY2FwZTp3aW5kb3ctbWF4aW1pemVkPSIxIiBpbmtzY2FwZTp3aW5kb3ctd2lkdGg9IjE5MjAiIGlua3NjYXBlOndpbmRvdy14PSItOCIgaW5rc2NhcGU6d2luZG93LXk9Ii04IiBpbmtzY2FwZTp6b29tPSI5LjI4MTc3NzkiIG9iamVjdHRvbGVyYW5jZT0iMTAiIHBhZ2Vjb2xvcj0iI2ZmZmZmZiIgc2hvd2dyaWQ9ImZhbHNlIj4mI3hhOwk8L3NvZGlwb2RpOm5hbWVkdmlldz4mI3hhOzxwYXRoIGlkPSJwYXRoMTgzODc3IiBpbmtzY2FwZTpjb25uZWN0b3ItY3VydmF0dXJlPSIwIiBzdHlsZT0iZmlsbDojRkZGRkZGOyIgZD0iTTQwLjM1LDM3LjVjLTAuMzItMC41OC0wLjkzLTEuNTgtMS43LTIuODMgIGMtMC43OC0xLjI1LTEuNzctMi44Ni0yLjgxLTQuNWMtMS4zLTIuMDUtMi42OC00LjIzLTMuOS02LjE1Yy0xLjUtMi4zNy0yLjc4LTQuMzYtMy40LTUuM1Y1LjI1YzAsMCwxLjUtMS41LDEuNS0zICBjMC0wLjc1LTAuNzUtMS41LTIuMjUtMS41aC0xMy41Yy0xLjUsMC0yLjI1LDAuNzUtMi4yNSwxLjVjMCwxLjUsMS41LDMsMS41LDN2MTMuNWMtMC42MywwLjk0LTEuOSwyLjkzLTMuNDEsNS4zICBjLTEuMjIsMS45Mi0yLjYsNC4xLTMuOSw2LjE1Yy0xLjAzLDEuNjQtMi4wMSwzLjIxLTIuOCw0LjVjLTAuOCwxLjI5LTEuMzgsMi4yNS0xLjcxLDIuODNjLTEuODcsMi45Ny0wLjk4LDYuOSwxLjk5LDguNzcgIGMxLDAuNjMsMi4xNSwwLjk3LDMuMzMsMC45OGgyNy45OWMzLjUxLTAuMDMsNi4zMy0yLjkxLDYuMy02LjQyYy0wLjAxLTEuMTgtMC4zNS0yLjMzLTAuOTgtMy4zM1YzNy41eiIvPiYjeGE7PHBhdGggaWQ9InBhdGgxODM4ODIiIGlua3NjYXBlOmNvbm5lY3Rvci1jdXJ2YXR1cmU9IjAiIHN0eWxlPSJmaWxsOiM1NUQyRjY7IiBkPSJNNDAuMTksNDMuOTVjLTEuMDIsMS45My0yLjk4LDMuMTktNS4xNiwzLjNINy4wNCAgYy0zLjQzLTAuMTktNi4wNy0zLjEyLTUuODgtNi41NWMwLjA2LTEuMDIsMC4zNi0yLjAxLDAuODktMi44OWMwLjU0LTAuOTgsMS0yLDEuMzctMy4wNmMwLjgtMS4yOSwxLjc3LTIuOTEsMi44MS00LjU2ICBjMS4zLTIuMDQsMi42OC0zLjk0LDMuOS02LjE5aDIxLjgxYzEuMjIsMi4yNSwyLjYsNC4xMiwzLjksNi4xN2MxLjAzLDEuNjQsMi4wMSwzLjIzLDIuOCw0LjVjMC4zNywxLjA3LDAuODQsMi4xMSwxLjM4LDMuMTEgIEM0MS4xNywzOS42Niw0MS4yNCw0Mi4wMSw0MC4xOSw0My45NXoiLz4mI3hhOzxwYXRoIGlkPSJwYXRoMTgzODg3IiBpbmtzY2FwZTpjb25uZWN0b3ItY3VydmF0dXJlPSIwIiBzdHlsZT0iZmlsbDpub25lO3N0cm9rZTojNTU2QThBO3N0cm9rZS13aWR0aDoxLjU7c3Ryb2tlLW1pdGVybGltaXQ6MzsiIGQ9IiAgTTQwLjM1LDM3LjVjLTAuNjYtMS4xOC0yLjQ3LTQuMS00LjUtNy4zM2MtMi45LTQuNTYtNi4xOS05LjcxLTcuMzEtMTEuNDJWNS4yNWMwLDAsMS41LTEuNSwxLjUtM2MwLTAuNzUtMC43NS0xLjUtMi4yNS0xLjVoLTEzLjUgIGMtMS41LDAtMi4yNSwwLjc1LTIuMjUsMS41YzAsMS41LDEuNSwzLDEuNSwzdjEzLjVjLTEuMTMsMS43MS00LjQxLDYuODYtNy4zMSwxMS40NWMtMi4wMywzLjI0LTMuODQsNi4xNS00LjUsNy4zNCAgYy0xLjg3LDIuOTctMC45OCw2LjksMS45OSw4Ljc3YzEsMC42MywyLjE1LDAuOTcsMy4zMywwLjk4aDI3Ljk4YzMuNTEtMC4wMyw2LjMzLTIuOTEsNi4zLTYuNDJjLTAuMDEtMS4xOC0wLjM1LTIuMzMtMC45OC0zLjMzICBWMzcuNXoiLz4mI3hhOzxwYXRoIGlkPSJwYXRoMTgzODkyIiBpbmtzY2FwZTpjb25uZWN0b3ItY3VydmF0dXJlPSIwIiBzdHlsZT0iZmlsbDojRTVFNUU1OyIgZD0iTTI3LjAzLDMuNzVoLTEyYy0wLjQxLDAtMC43NS0wLjM0LTAuNzUtMC43NSAgczAuMzQtMC43NSwwLjc1LTAuNzVoMTJjMC40MSwwLDAuNzUsMC4zNCwwLjc1LDAuNzVTMjcuNDUsMy43NSwyNy4wMywzLjc1eiIvPiYjeGE7PHJlY3QgaWQ9InJlY3QxODM4OTciIHg9Ii0yLjk3IiB5PSIwIiBzdHlsZT0iZmlsbDpub25lOyIgd2lkdGg9IjQ4IiBoZWlnaHQ9IjQ4Ii8+JiN4YTs8cGF0aCBpZD0icGF0aDE4MzkwMiIgaW5rc2NhcGU6Y29ubmVjdG9yLWN1cnZhdHVyZT0iMCIgc3R5bGU9ImZpbGw6I0ZGRkZGRjsiIGQ9Ik0zMy4wNCw0NC42M2MtNi40Mi0wLjAzLTExLjYxLTUuMjYtMTEuNTgtMTEuNjggIHM1LjI2LTExLjYxLDExLjY4LTExLjU4czExLjYxLDUuMjYsMTEuNTgsMTEuNjhjLTAuMDEsMy4wOC0xLjI1LDYuMDMtMy40Myw4LjJDMzkuMSw0My40MywzNi4xMyw0NC42NSwzMy4wNCw0NC42M3oiLz4mI3hhOzxwYXRoIGlkPSJwYXRoMTgzOTA3IiBpbmtzY2FwZTpjb25uZWN0b3ItY3VydmF0dXJlPSIwIiBzdHlsZT0iZmlsbDojNTU2QThBOyIgZD0iTTMzLjAzLDIyLjVjNS44LTAuMDEsMTAuNSw0LjY5LDEwLjUxLDEwLjQ5ICBzLTQuNjksMTAuNS0xMC40OSwxMC41MXMtMTAuNS00LjY5LTEwLjUxLTEwLjQ5YzAtMi43OSwxLjEtNS40NiwzLjA3LTcuNDNDMjcuNTcsMjMuNiwzMC4yNCwyMi40OSwzMy4wMywyMi41eiBNMzMuMDMsMjEgIGMtNi42MywwLTEyLDUuMzctMTIsMTJjMCw2LjYzLDUuMzcsMTIsMTIsMTJzMTItNS4zNywxMi0xMmMwLTMuMTgtMS4yNi02LjIzLTMuNTEtOC40OEMzOS4yNywyMi4yNiwzNi4yMSwyMC45OSwzMy4wMywyMXoiLz4mI3hhOzxwYXRoIGlkPSJwYXRoMTgzOTEyIiBpbmtzY2FwZTpjb25uZWN0b3ItY3VydmF0dXJlPSIwIiBzdHlsZT0iZmlsbDojMkJDN0Y0OyIgZD0iTTMwLjQsMzQuODhsOS4zOCw0Ljg3bC00Ljg3LTkuMzhsLTguNjMtNC4xMiAgTDMwLjQsMzQuODh6Ii8+JiN4YTs8cGF0aCBpZD0icGF0aDE4MzkxNyIgaW5rc2NhcGU6Y29ubmVjdG9yLWN1cnZhdHVyZT0iMCIgc3R5bGU9ImZpbGw6bm9uZTtzdHJva2U6IzU1NkE4QTtzdHJva2Utd2lkdGg6MS41O3N0cm9rZS1taXRlcmxpbWl0OjM7IiBkPSIgIE0zMy4wMywyMi40djMiLz4mI3hhOzxwYXRoIGlkPSJwYXRoMTgzOTIyIiBpbmtzY2FwZTpjb25uZWN0b3ItY3VydmF0dXJlPSIwIiBzdHlsZT0iZmlsbDpub25lO3N0cm9rZTojNTU2QThBO3N0cm9rZS13aWR0aDoxLjU7c3Ryb2tlLW1pdGVybGltaXQ6MzsiIGQ9IiAgTTMzLjAzLDQwLjV2MyIvPiYjeGE7PHBhdGggaWQ9InBhdGgxODM5MjciIGlua3NjYXBlOmNvbm5lY3Rvci1jdXJ2YXR1cmU9IjAiIHN0eWxlPSJmaWxsOm5vbmU7c3Ryb2tlOiM1NTZBOEE7c3Ryb2tlLXdpZHRoOjEuNTtzdHJva2UtbWl0ZXJsaW1pdDozOyIgZD0iICBNMjIuNTMsMzIuMjVoMyIvPiYjeGE7PHBhdGggaWQ9InBhdGgxODM5MzIiIGlua3NjYXBlOmNvbm5lY3Rvci1jdXJ2YXR1cmU9IjAiIHN0eWxlPSJmaWxsOm5vbmU7c3Ryb2tlOiM1NTZBOEE7c3Ryb2tlLXdpZHRoOjEuNTtzdHJva2UtbWl0ZXJsaW1pdDozOyIgZD0iICBNNDAuNTMsMzIuMjVoMyIvPiYjeGE7PGNpcmNsZSBpZD0iZWxsaXBzZTE4MzkzNyIgc3R5bGU9ImZpbGw6I0ZGRkZGRjsiIGN4PSIzMy4wMyIgY3k9IjMzIiByPSIxLjUiLz4mI3hhOzwvc3ZnPg==;" parent="cTBxlqMjr0OGGQ4enT8b-26" vertex="1">
          <mxGeometry x="108.79999999999998" y="2" width="20" height="21.33" as="geometry" />
        </mxCell>
        <mxCell id="cTBxlqMjr0OGGQ4enT8b-29" value="" style="shape=image;verticalLabelPosition=bottom;labelBackgroundColor=#ffffff;verticalAlign=top;aspect=fixed;imageAspect=0;image=data:image/svg+xml,PHN2ZyB4bWxuczpjYz0iaHR0cDovL2NyZWF0aXZlY29tbW9ucy5vcmcvbnMjIiB4bWxuczpkYz0iaHR0cDovL3B1cmwub3JnL2RjL2VsZW1lbnRzLzEuMS8iIHhtbG5zOmlua3NjYXBlPSJodHRwOi8vd3d3Lmlua3NjYXBlLm9yZy9uYW1lc3BhY2VzL2lua3NjYXBlIiB4bWxuczpyZGY9Imh0dHA6Ly93d3cudzMub3JnLzE5OTkvMDIvMjItcmRmLXN5bnRheC1ucyMiIHhtbG5zOnNvZGlwb2RpPSJodHRwOi8vc29kaXBvZGkuc291cmNlZm9yZ2UubmV0L0RURC9zb2RpcG9kaS0wLmR0ZCIgeG1sbnM6c3ZnPSJodHRwOi8vd3d3LnczLm9yZy8yMDAwL3N2ZyIgeG1sbnM9Imh0dHA6Ly93d3cudzMub3JnLzIwMDAvc3ZnIiB4bWxuczp4bGluaz0iaHR0cDovL3d3dy53My5vcmcvMTk5OS94bGluayIgdmVyc2lvbj0iMS4xIiBpZD0ic3ZnNzc5MjQiIGlua3NjYXBlOnZlcnNpb249IjAuOTIuMyAoMjQwNTU0NiwgMjAxOC0wMy0xMSkiIHNvZGlwb2RpOmRvY25hbWU9ImRhdGFfcGlwZWxpbmVzLnN2ZyIgeD0iMHB4IiB5PSIwcHgiIHZpZXdCb3g9IjAgMCA2Mi4zNyA0MC40MiIgc3R5bGU9ImVuYWJsZS1iYWNrZ3JvdW5kOm5ldyAwIDAgNjIuMzcgNDAuNDI7IiB4bWw6c3BhY2U9InByZXNlcnZlIj4mI3hhOzxzb2RpcG9kaTpuYW1lZHZpZXcgYm9yZGVyY29sb3I9IiM2NjY2NjYiIGJvcmRlcm9wYWNpdHk9IjEiIGZpdC1tYXJnaW4tYm90dG9tPSIwIiBmaXQtbWFyZ2luLWxlZnQ9IjAiIGZpdC1tYXJnaW4tcmlnaHQ9IjAiIGZpdC1tYXJnaW4tdG9wPSIwIiBncmlkdG9sZXJhbmNlPSIxMCIgZ3VpZGV0b2xlcmFuY2U9IjEwIiBpZD0ibmFtZWR2aWV3Nzc5MjYiIGlua3NjYXBlOmN1cnJlbnQtbGF5ZXI9InN2Zzc3OTI0IiBpbmtzY2FwZTpjeD0iNDUuMjI3NTg0IiBpbmtzY2FwZTpjeT0iMjAuMzQ0ODU2IiBpbmtzY2FwZTpwYWdlb3BhY2l0eT0iMCIgaW5rc2NhcGU6cGFnZXNoYWRvdz0iMiIgaW5rc2NhcGU6d2luZG93LWhlaWdodD0iMTAxNyIgaW5rc2NhcGU6d2luZG93LW1heGltaXplZD0iMSIgaW5rc2NhcGU6d2luZG93LXdpZHRoPSIxOTIwIiBpbmtzY2FwZTp3aW5kb3cteD0iLTgiIGlua3NjYXBlOndpbmRvdy15PSItOCIgaW5rc2NhcGU6em9vbT0iMTEuMzc2MzExIiBvYmplY3R0b2xlcmFuY2U9IjEwIiBwYWdlY29sb3I9IiNmZmZmZmYiIHNob3dncmlkPSJmYWxzZSI+JiN4YTsJPC9zb2RpcG9kaTpuYW1lZHZpZXc+JiN4YTs8ZyBpZD0iZzc3OTIyIj4mI3hhOwk8dGl0bGUgaWQ9InRpdGxlNzc5MDIiPlBhZ2UtMTwvdGl0bGU+JiN4YTsJPGcgaWQ9Imdyb3VwNTAwMS0xIj4mI3hhOwkJPHRpdGxlIGlkPSJ0aXRsZTc3OTA0Ij5EYXRhIFBpcGVsaW5lcy40OTQ8L3RpdGxlPiYjeGE7CQk8ZyBpZD0ic2hhcGU1MDAyLTIiIHRyYW5zZm9ybT0idHJhbnNsYXRlKDkuMjAwOTgsLTQuNTg4MDYpIj4mI3hhOwkJCTx0aXRsZSBpZD0idGl0bGU3NzkwNiI+U2hlZXQuNTAwMjwvdGl0bGU+JiN4YTsJCQk8cGF0aCBpZD0icGF0aDc3OTA4IiBpbmtzY2FwZTpjb25uZWN0b3ItY3VydmF0dXJlPSIwIiBzdHlsZT0iZmlsbDojMDA3MDhFOyIgZD0iTTAsOS4yMXYzMS4yMWg0Ny41NFY5LjIxSDB6Ii8+JiN4YTsJCTwvZz4mI3hhOwkJPGcgaWQ9InNoYXBlNTAwMy00Ij4mI3hhOwkJCTx0aXRsZSBpZD0idGl0bGU3NzkxMSI+U2hlZXQuNTAwMzwvdGl0bGU+JiN4YTsJCQk8cGF0aCBpZD0icGF0aDc3OTEzIiBpbmtzY2FwZTpjb25uZWN0b3ItY3VydmF0dXJlPSIwIiBzdHlsZT0iZmlsbDojMDA5MEI3OyIgZD0iTTAsNS44NUMwLDM0LjYsMCwzNC42LDAsMzQuNiAgICAgYzAsMy41MSwyLjM2LDUuODIsNS44OCw1LjgyYzMuMTYsMCw1Ljg4LTIuMzEsNS44OC01LjgyYzAtMjguNzUsMC0yOC43NSwwLTI4Ljc1QzExLjc2LDIuNzUsOS4wNCwwLDUuODgsMEMyLjM2LDAsMCwyLjc1LDAsNS44NSAgICAgeiIvPiYjeGE7CQk8L2c+JiN4YTsJCTxnIGlkPSJzaGFwZTUwMDQtNiIgdHJhbnNmb3JtPSJ0cmFuc2xhdGUoNTEuMTE2NikiPiYjeGE7CQkJPHRpdGxlIGlkPSJ0aXRsZTc3OTE2Ij5TaGVldC41MDA0PC90aXRsZT4mI3hhOwkJCTxwYXRoIGlkPSJwYXRoNzc5MTgiIGlua3NjYXBlOmNvbm5lY3Rvci1jdXJ2YXR1cmU9IjAiIHN0eWxlPSJmaWxsOiMwMDkwQjc7IiBkPSJNMCw1Ljg1QzAsMzQuNiwwLDM0LjYsMCwzNC42ICAgICBjMCwzLjUxLDIuNjUsNS44Miw1LjYyLDUuODJjMy4wMSwwLDUuNjMtMi4zMSw1LjYzLTUuODJjMC0yOC43NSwwLTI4Ljc1LDAtMjguNzVDMTEuMjUsMi43NSw4LjYzLDAsNS42MiwwQzIuNjUsMCwwLDIuNzUsMCw1Ljg1ICAgICB6Ii8+JiN4YTsJCTwvZz4mI3hhOwk8L2c+JiN4YTs8L2c+JiN4YTs8L3N2Zz4=;" parent="HRm0Tem71c5kKFzc_Awa-1" vertex="1">
          <mxGeometry x="330" y="280" width="30" height="19.36" as="geometry" />
        </mxCell>
        <mxCell id="5PJw5rZUytSaX4F0p3rT-2" value="&lt;b&gt;&lt;font style=&quot;font-size: 18px&quot;&gt;Data&lt;/font&gt;&lt;/b&gt;" style="text;html=1;strokeColor=none;fillColor=none;align=center;verticalAlign=middle;whiteSpace=wrap;rounded=0;" vertex="1" parent="HRm0Tem71c5kKFzc_Awa-1">
          <mxGeometry x="90" y="18" width="40" height="22" as="geometry" />
        </mxCell>
        <mxCell id="5PJw5rZUytSaX4F0p3rT-5" value="TabularDataFactory" style="text;html=1;strokeColor=none;fillColor=none;align=center;verticalAlign=middle;whiteSpace=wrap;rounded=0;" vertex="1" parent="HRm0Tem71c5kKFzc_Awa-1">
          <mxGeometry x="93" y="129" width="40" height="20" as="geometry" />
        </mxCell>
        <mxCell id="5PJw5rZUytSaX4F0p3rT-6" style="rounded=0;orthogonalLoop=1;jettySize=auto;html=1;endArrow=none;endFill=0;" edge="1" parent="HRm0Tem71c5kKFzc_Awa-1" source="cTBxlqMjr0OGGQ4enT8b-1" target="5PJw5rZUytSaX4F0p3rT-5">
          <mxGeometry relative="1" as="geometry">
            <mxPoint x="109" y="106" as="sourcePoint" />
            <mxPoint x="109" y="180" as="targetPoint" />
          </mxGeometry>
        </mxCell>
      </root>
    </mxGraphModel>
  </diagram>
</mxfile>
